<?xml version="1.0" encoding="UTF-8"?>
<svg xmlns="http://www.w3.org/2000/svg" viewBox="0 0 1440 860" font-family="Arial, Helvetica, sans-serif">

  <!-- Background -->
  <rect width="1440" height="860" fill="#ffffff"/>

  <!-- Header -->
  <rect x="0" y="0" width="1440" height="52" fill="#1a3a6b"/>
  <text x="20" y="20" font-size="11" fill="#ffffff" font-weight="700" letter-spacing="1">REGULATORY ANALYSIS — GENIUS + CLARITY: THE COMPLETE US CRYPTO AML FRAMEWORK</text>
  <text x="20" y="38" font-size="9.5" fill="#93c5fd">Case AML-IR-2026-011  ·  GENIUS Act (signed Jul 2025)  ·  CLARITY Act (pending)  ·  Senate Banking May 14, 2026  ·  DeFi Title · SEC/CFTC</text>
  <text x="1380" y="30" font-size="8" fill="#93c5fd" text-anchor="end">ACAMS · FATF · BSA · FinCEN · CFTC · SEC</text>

  <!-- Section title -->
  <text x="20" y="74" font-size="11" fill="#1a3a6b" font-weight="700">Two-Pillar Framework — AML Implications for Digital Asset Practitioners</text>
  <line x1="20" y1="78" x2="1380" y2="78" stroke="#1a3a6b" stroke-width="1.5"/>

  <!-- ARROWS -->
  <defs>
    <marker id="arr-red"    markerWidth="9" markerHeight="7" refX="8" refY="3.5" orient="auto"><polygon points="0 0,9 3.5,0 7" fill="#dc2626"/></marker>
    <marker id="arr-blue"   markerWidth="9" markerHeight="7" refX="8" refY="3.5" orient="auto"><polygon points="0 0,9 3.5,0 7" fill="#1a3a6b"/></marker>
    <marker id="arr-green"  markerWidth="9" markerHeight="7" refX="8" refY="3.5" orient="auto"><polygon points="0 0,9 3.5,0 7" fill="#059669"/></marker>
    <marker id="arr-orange" markerWidth="9" markerHeight="7" refX="8" refY="3.5" orient="auto"><polygon points="0 0,9 3.5,0 7" fill="#d97706"/></marker>
    <marker id="arr-purple" markerWidth="9" markerHeight="7" refX="8" refY="3.5" orient="auto"><polygon points="0 0,9 3.5,0 7" fill="#7c3aed"/></marker>
  </defs>

  <!-- MAIN TIMELINE -->
  <line x1="60" y1="420" x2="1380" y2="420" stroke="#1a3a6b" stroke-width="2"/>
  <text x="20" y="416" font-size="8" fill="#1a3a6b" font-weight="700">Flow</text>

  <!-- ══════════════════════════════════ -->
  <!-- PILLAR 1: GENIUS ACT               -->
  <!-- ══════════════════════════════════ -->
  <rect x="62" y="380" width="76" height="80" rx="4" fill="#f0fdf4" stroke="#059669" stroke-width="2.5"/>
  <circle cx="100" cy="400" r="14" fill="#059669"/>
  <text x="100" y="406" font-size="14" fill="#fff" text-anchor="middle">✓</text>
  <rect x="68" y="416" width="64" height="32" rx="3" fill="#059669"/>
  <text x="100" y="428" font-size="7" fill="#fff" text-anchor="middle" font-weight="700">GENIUS ACT</text>
  <text x="100" y="438" font-size="6.5" fill="#d1fae5" text-anchor="middle">SIGNED LAW</text>
  <text x="100" y="448" font-size="6" fill="#d1fae5" text-anchor="middle">July 18, 2025</text>
  <text x="100" y="456" font-size="5.5" fill="#d1fae5" text-anchor="middle">In effect now</text>

  <!-- GENIUS box -->
  <rect x="14" y="88" width="172" height="270" rx="3" fill="#f0fdf4" stroke="#059669" stroke-width="1"/>
  <rect x="14" y="88" width="172" height="18" rx="3" fill="#059669"/>
  <text x="100" y="100" font-size="8" fill="#fff" font-weight="700" text-anchor="middle">GENIUS Act — In Effect ✓</text>
  <text x="22" y="118" font-size="7.5" fill="#374151" font-weight="700">Covers: Payment Stablecoins</text>
  <text x="22" y="130" font-size="7.5" fill="#374151">USDC, USDT, equivalents</text>
  <text x="22" y="146" font-size="7.5" fill="#374151" font-weight="700">AML obligations:</text>
  <text x="22" y="158" font-size="7.5" fill="#374151">• PPSIs = financial institutions</text>
  <text x="22" y="170" font-size="7.5" fill="#374151">• Full BSA AML program</text>
  <text x="22" y="182" font-size="7.5" fill="#374151">• KYC + SAR filing</text>
  <text x="22" y="194" font-size="7.5" fill="#374151">• On-chain freeze capability</text>
  <text x="22" y="206" font-size="7.5" fill="#374151">• Monthly reserve attestation</text>
  <text x="22" y="218" font-size="7.5" fill="#374151">• Annual independent audit</text>
  <text x="22" y="230" font-size="7.5" fill="#374151">• US-based compliance officer</text>
  <text x="22" y="246" font-size="7.5" fill="#374151" font-weight="700">Regulator: FinCEN + OCC/Fed</text>
  <text x="22" y="262" font-size="7.5" fill="#059669" font-weight="700">Gap: Foreign issuers (Tether)</text>
  <text x="22" y="274" font-size="7.5" fill="#374151">S.3907 pending to close</text>
  <text x="22" y="290" font-size="7.5" fill="#374151">BSA · OFAC · ACAMS 7.2</text>
  <text x="22" y="302" font-size="7.5" fill="#374151">FATF R.20 · GENIUS Act §4</text>
  <text x="22" y="318" font-size="7.5" fill="#374151">See also: AML-IR-2026-010</text>
  <line x1="100" y1="358" x2="100" y2="380" stroke="#059669" stroke-width="1" stroke-dasharray="4,3"/>

  <!-- ══════════════════════════════════ -->
  <!-- PILLAR 2: CLARITY ACT              -->
  <!-- ══════════════════════════════════ -->
  <rect x="234" y="380" width="76" height="80" rx="4" fill="#fffbeb" stroke="#d97706" stroke-width="2.5"/>
  <circle cx="272" cy="400" r="14" fill="#d97706"/>
  <text x="272" y="406" font-size="14" fill="#fff" text-anchor="middle">⚖</text>
  <rect x="240" y="416" width="64" height="32" rx="3" fill="#d97706"/>
  <text x="272" y="428" font-size="7" fill="#fff" text-anchor="middle" font-weight="700">CLARITY ACT</text>
  <text x="272" y="438" font-size="6.5" fill="#fef3c7" text-anchor="middle">PENDING</text>
  <text x="272" y="448" font-size="6" fill="#fef3c7" text-anchor="middle">House: Jul 2025 ✓</text>
  <text x="272" y="456" font-size="5.5" fill="#fef3c7" text-anchor="middle">Senate: advancing</text>

  <!-- Arrow GENIUS → CLARITY -->
  <line x1="138" y1="420" x2="232" y2="420" stroke="#1a3a6b" stroke-width="2" marker-end="url(#arr-blue)"/>
  <rect x="144" y="404" width="82" height="14" rx="2" fill="#eff6ff" stroke="#1a3a6b" stroke-width="0.5"/>
  <text x="185" y="414" font-size="7" fill="#1a3a6b" text-anchor="middle" font-weight="700">complements</text>

  <!-- CLARITY box -->
  <rect x="196" y="88" width="186" height="270" rx="3" fill="#fffbeb" stroke="#d97706" stroke-width="1"/>
  <rect x="196" y="88" width="186" height="18" rx="3" fill="#d97706"/>
  <text x="289" y="100" font-size="8" fill="#fff" font-weight="700" text-anchor="middle">CLARITY Act — Pending ⚠</text>
  <text x="204" y="118" font-size="7.5" fill="#374151" font-weight="700">Covers: Everything else</text>
  <text x="204" y="130" font-size="7.5" fill="#374151">Bitcoin, Ethereum, digital assets</text>
  <text x="204" y="146" font-size="7.5" fill="#374151" font-weight="700">3 Asset Categories:</text>
  <text x="204" y="158" font-size="7.5" fill="#374151">• Digital commodities (CFTC)</text>
  <text x="204" y="170" font-size="7.5" fill="#374151">  Bitcoin, ETH — decentralized</text>
  <text x="204" y="182" font-size="7.5" fill="#374151">• Investment contracts (SEC)</text>
  <text x="204" y="194" font-size="7.5" fill="#374151">  Early-stage tokens</text>
  <text x="204" y="206" font-size="7.5" fill="#374151">• Transitional assets</text>
  <text x="204" y="218" font-size="7.5" fill="#374151">  Certification process</text>
  <text x="204" y="234" font-size="7.5" fill="#374151" font-weight="700">AML obligations:</text>
  <text x="204" y="246" font-size="7.5" fill="#374151">• Intermediaries → BSA</text>
  <text x="204" y="258" font-size="7.5" fill="#374151">• KYC + SAR + AML program</text>
  <text x="204" y="270" font-size="7.5" fill="#374151">• DeFi access layer regulated</text>
  <text x="204" y="282" font-size="7.5" fill="#374151">• Crypto ATM framework</text>
  <text x="204" y="298" font-size="7.5" fill="#d97706" font-weight="700">Regulator: CFTC + SEC + FinCEN</text>
  <text x="204" y="314" font-size="7.5" fill="#374151">BSA · CFTC · ACAMS 4.2</text>
  <text x="204" y="326" font-size="7.5" fill="#374151">FATF R.15 · Senate sub. May 2026</text>
  <line x1="272" y1="358" x2="272" y2="380" stroke="#d97706" stroke-width="1" stroke-dasharray="4,3"/>

  <!-- ══════════════════════════════════ -->
  <!-- SEC vs CFTC GAP                    -->
  <!-- ══════════════════════════════════ -->
  <rect x="410" y="388" width="72" height="64" rx="4" fill="#fff8f8" stroke="#dc2626" stroke-width="1.5"/>
  <circle cx="446" cy="406" r="10" fill="#dc2626"/>
  <text x="446" y="411" font-size="12" fill="#fff" text-anchor="middle">⚠</text>
  <rect x="416" y="418" width="60" height="22" rx="3" fill="#dc2626"/>
  <text x="446" y="430" font-size="6.5" fill="#fff" text-anchor="middle" font-weight="700">SEC / CFTC</text>
  <text x="446" y="440" font-size="6" fill="#6b7280" text-anchor="middle">AML gap</text>
  <text x="446" y="450" font-size="6" fill="#dc2626" text-anchor="middle" font-weight="700">transitional risk</text>

  <!-- Arrow CLARITY → SEC/CFTC -->
  <line x1="310" y1="420" x2="408" y2="420" stroke="#dc2626" stroke-width="2" marker-end="url(#arr-red)"/>
  <rect x="316" y="404" width="86" height="14" rx="2" fill="#fff0f0" stroke="#dc2626" stroke-width="0.5"/>
  <text x="359" y="414" font-size="7" fill="#dc2626" text-anchor="middle" font-weight="700">jurisdiction split</text>

  <!-- SEC/CFTC box -->
  <rect x="386" y="88" width="196" height="270" rx="3" fill="#fff8f8" stroke="#dc2626" stroke-width="1"/>
  <rect x="386" y="88" width="196" height="18" rx="3" fill="#dc2626"/>
  <text x="484" y="100" font-size="8" fill="#fff" font-weight="700" text-anchor="middle">SEC vs CFTC — AML Gap</text>
  <text x="394" y="118" font-size="7.5" fill="#374151" font-weight="700">Before CLARITY:</text>
  <text x="394" y="130" font-size="7.5" fill="#374151">Both claim jurisdiction</text>
  <text x="394" y="142" font-size="7.5" fill="#374151">Exchanges: regulatory uncertainty</text>
  <text x="394" y="158" font-size="7.5" fill="#374151" font-weight="700">After CLARITY:</text>
  <text x="394" y="170" font-size="7.5" fill="#374151">Bitcoin/ETH → CFTC</text>
  <text x="394" y="182" font-size="7.5" fill="#374151">Early tokens → SEC</text>
  <text x="394" y="198" font-size="7.5" fill="#dc2626" font-weight="700">The AML challenge:</text>
  <text x="394" y="210" font-size="7.5" fill="#374151">CFTC = derivatives expertise</text>
  <text x="394" y="222" font-size="7.5" fill="#374151">Spot market AML: less developed</text>
  <text x="394" y="234" font-size="7.5" fill="#374151">Joint rulemaking needed:</text>
  <text x="394" y="246" font-size="7.5" fill="#374151">CFTC + FinCEN coordination</text>
  <text x="394" y="262" font-size="7.5" fill="#374151" font-weight="700">My practice:</text>
  <text x="394" y="274" font-size="7.5" fill="#374151">Apply conservative BSA standard</text>
  <text x="394" y="286" font-size="7.5" fill="#374151">to ALL digital assets during</text>
  <text x="394" y="298" font-size="7.5" fill="#374151">transition — regardless of CFTC</text>
  <text x="394" y="310" font-size="7.5" fill="#374151">vs. SEC classification</text>
  <text x="394" y="326" font-size="7.5" fill="#374151">ACAMS 4.2 · FATF R.2</text>
  <text x="394" y="338" font-size="7.5" fill="#374151">BSA · CFTC · FinCEN</text>
  <line x1="446" y1="348" x2="446" y2="388" stroke="#dc2626" stroke-width="1" stroke-dasharray="4,3"/>

  <!-- ══════════════════════════════════ -->
  <!-- DEFI TITLE — KEY AML PROVISION     -->
  <!-- ══════════════════════════════════ -->
  <rect x="580" y="380" width="76" height="80" rx="4" fill="#f5f0ff" stroke="#7c3aed" stroke-width="2.5"/>
  <circle cx="618" cy="400" r="14" fill="#7c3aed"/>
  <text x="618" y="406" font-size="14" fill="#fff" text-anchor="middle">🌀</text>
  <rect x="586" y="416" width="64" height="32" rx="3" fill="#7c3aed"/>
  <text x="618" y="428" font-size="7" fill="#fff" text-anchor="middle" font-weight="700">DeFi TITLE</text>
  <text x="618" y="438" font-size="6.5" fill="#e9d5ff" text-anchor="middle">Most important</text>
  <text x="618" y="448" font-size="6" fill="#e9d5ff" text-anchor="middle">AML provision</text>
  <text x="618" y="456" font-size="5.5" fill="#e9d5ff" text-anchor="middle">May 14, 2026</text>

  <!-- Arrow SEC/CFTC → DeFi -->
  <line x1="482" y1="420" x2="578" y2="420" stroke="#7c3aed" stroke-width="2" marker-end="url(#arr-purple)"/>
  <rect x="488" y="404" width="84" height="14" rx="2" fill="#f5f0ff" stroke="#7c3aed" stroke-width="0.5"/>
  <text x="530" y="414" font-size="7" fill="#7c3aed" text-anchor="middle" font-weight="700">access layer</text>

  <!-- DeFi title box -->
  <rect x="562" y="88" width="202" height="270" rx="3" fill="#f5f0ff" stroke="#7c3aed" stroke-width="1"/>
  <rect x="562" y="88" width="202" height="18" rx="3" fill="#7c3aed"/>
  <text x="663" y="100" font-size="8" fill="#fff" font-weight="700" text-anchor="middle">DeFi Title — AML Breakthrough</text>
  <text x="570" y="118" font-size="7.5" fill="#374151" font-weight="700">Key provision:</text>
  <text x="570" y="130" font-size="7.5" fill="#374151">Intermediaries routing through</text>
  <text x="570" y="142" font-size="7.5" fill="#374151">DeFi protocols → BSA obligations</text>
  <text x="570" y="158" font-size="7.5" fill="#374151" font-weight="700">Connects to this series:</text>
  <text x="570" y="170" font-size="7.5" fill="#374151">Tornado Cash (AML-IR-2026-004):</text>
  <text x="570" y="182" font-size="7.5" fill="#374151">Frontend → regulated access layer</text>
  <text x="570" y="194" font-size="7.5" fill="#374151">Bybit (AML-IR-2026-006):</text>
  <text x="570" y="206" font-size="7.5" fill="#374151">THORChain routing → BSA</text>
  <text x="570" y="222" font-size="7.5" fill="#374151" font-weight="700">Sufficient decentralization:</text>
  <text x="570" y="234" font-size="7.5" fill="#374151">No control group → protocol</text>
  <text x="570" y="246" font-size="7.5" fill="#374151">No enforcement point</text>
  <text x="570" y="258" font-size="7.5" fill="#374151">Control group exists → BSA</text>
  <text x="570" y="274" font-size="7.5" fill="#374151" font-weight="700">My 5-point DeFi review:</text>
  <text x="570" y="286" font-size="7.5" fill="#374151">1. Identifiable control group?</text>
  <text x="570" y="298" font-size="7.5" fill="#374151">2. Governance token holders?</text>
  <text x="570" y="310" font-size="7.5" fill="#374151">3. Registered frontend operator?</text>
  <text x="570" y="322" font-size="7.5" fill="#374151">ACAMS 4.3.3 · FATF R.15</text>
  <text x="570" y="334" font-size="7.5" fill="#374151">BSA · CLARITY Act DeFi title</text>
  <line x1="618" y1="358" x2="618" y2="380" stroke="#7c3aed" stroke-width="1" stroke-dasharray="4,3"/>

  <!-- ══════════════════════════════════ -->
  <!-- BRAZIL IMPACT                      -->
  <!-- ══════════════════════════════════ -->
  <rect x="756" y="388" width="72" height="64" rx="4" fill="#f0fdf4" stroke="#009c3b" stroke-width="1.5"/>
  <circle cx="792" cy="406" r="10" fill="#009c3b"/>
  <text x="792" y="411" font-size="12" fill="#fff" text-anchor="middle">🇧🇷</text>
  <rect x="762" y="418" width="60" height="22" rx="3" fill="#009c3b"/>
  <text x="792" y="430" font-size="6.5" fill="#fff" text-anchor="middle" font-weight="700">BRAZIL</text>
  <text x="792" y="440" font-size="6" fill="#6b7280" text-anchor="middle">BCB framework</text>
  <text x="792" y="450" font-size="6" fill="#009c3b" text-anchor="middle" font-weight="700">convergence</text>

  <!-- Arrow DeFi → Brazil -->
  <line x1="656" y1="420" x2="754" y2="420" stroke="#009c3b" stroke-width="1.5" stroke-dasharray="5,3" marker-end="url(#arr-green)"/>
  <rect x="662" y="404" width="86" height="14" rx="2" fill="#f0fdf4" stroke="#009c3b" stroke-width="0.5"/>
  <text x="705" y="414" font-size="7" fill="#009c3b" text-anchor="middle" font-weight="700">global precedent</text>

  <!-- Brazil box -->
  <rect x="738" y="88" width="206" height="270" rx="3" fill="#f0fdf4" stroke="#009c3b" stroke-width="1"/>
  <rect x="738" y="88" width="206" height="18" rx="3" fill="#009c3b"/>
  <text x="841" y="100" font-size="8" fill="#fff" font-weight="700" text-anchor="middle">Impact on Brazil's Framework</text>
  <text x="746" y="118" font-size="7.5" fill="#374151" font-weight="700">Commodity classification:</text>
  <text x="746" y="130" font-size="7.5" fill="#374151">Bitcoin = commodity (US)</text>
  <text x="746" y="142" font-size="7.5" fill="#374151">BCB may evolve to distinguish</text>
  <text x="746" y="154" font-size="7.5" fill="#374151">Bitcoin vs. stablecoins for AML</text>
  <text x="746" y="170" font-size="7.5" fill="#374151" font-weight="700">DeFi precedent for P2P gap:</text>
  <text x="746" y="182" font-size="7.5" fill="#374151">CLARITY: regulate access layer</text>
  <text x="746" y="194" font-size="7.5" fill="#374151">not the protocol itself</text>
  <text x="746" y="206" font-size="7.5" fill="#374151">PL 5256/2025 takes same approach</text>
  <text x="746" y="218" font-size="7.5" fill="#374151">CLARITY = international precedent</text>
  <text x="746" y="234" font-size="7.5" fill="#374151" font-weight="700">FATF R.15 alignment:</text>
  <text x="746" y="246" font-size="7.5" fill="#374151">Most detailed legislative response</text>
  <text x="746" y="258" font-size="7.5" fill="#374151">to new technology risk yet</text>
  <text x="746" y="270" font-size="7.5" fill="#374151">Brazil regulators can draw on</text>
  <text x="746" y="282" font-size="7.5" fill="#374151">CLARITY for future DeFi guidance</text>
  <text x="746" y="298" font-size="7.5" fill="#374151" font-weight="700">See also: AML-IR-2026-007</text>
  <text x="746" y="310" font-size="7.5" fill="#374151">(Brazil's Three Gaps)</text>
  <text x="746" y="326" font-size="7.5" fill="#374151">FATF R.15 · BCB Res. 521</text>
  <text x="746" y="338" font-size="7.5" fill="#374151">PL 5256/2025 · Lei 9.613</text>
  <line x1="792" y1="358" x2="792" y2="388" stroke="#009c3b" stroke-width="1" stroke-dasharray="4,3"/>

  <!-- ══════════════════════════════════ -->
  <!-- THREE REMAINING GAPS               -->
  <!-- ══════════════════════════════════ -->
  <rect x="962" y="88" width="220" height="364" rx="3" fill="#fff8f8" stroke="#dc2626" stroke-width="1.5"/>
  <rect x="962" y="88" width="220" height="18" rx="3" fill="#dc2626"/>
  <text x="1072" y="100" font-size="8" fill="#fff" font-weight="700" text-anchor="middle">3 Gaps CLARITY Does Not Close</text>

  <g font-size="7.5">
    <rect x="966" y="110" width="212" height="72" rx="2" fill="#fff0f0"/>
    <text x="970" y="124" fill="#dc2626" font-weight="700">Gap 1 — Rulemaking Timeline</text>
    <text x="970" y="136" fill="#374151">Joint SEC-CFTC rulemakings needed</text>
    <text x="970" y="148" fill="#374151">before definitions are binding</text>
    <text x="970" y="160" fill="#374151">12-24 months after passage</text>
    <text x="970" y="172" fill="#374151">Transition = exploitable uncertainty</text>

    <rect x="966" y="186" width="212" height="72" rx="2" fill="#fff0f0"/>
    <text x="970" y="200" fill="#dc2626" font-weight="700">Gap 2 — Foreign DeFi Protocols</text>
    <text x="970" y="212" fill="#374151">DeFi outside US jurisdiction</text>
    <text x="970" y="224" fill="#374151">accessed via non-US frontends</text>
    <text x="970" y="236" fill="#374151">may fall outside framework</text>
    <text x="970" y="248" fill="#374151">Same gap as Tornado Cash 5th Cir.</text>

    <rect x="966" y="262" width="212" height="72" rx="2" fill="#fff0f0"/>
    <text x="970" y="276" fill="#dc2626" font-weight="700">Gap 3 — Truly Autonomous Protocols</text>
    <text x="970" y="288" fill="#374151">No control group, no governance</text>
    <text x="970" y="300" fill="#374151">token holders, no frontend operator</text>
    <text x="970" y="312" fill="#374151">Framework relies on access layer</text>
    <text x="970" y="324" fill="#374151">If access is also decentralized:</text>
    <text x="970" y="336" fill="#dc2626" font-weight="700">still no enforcement point</text>

    <text x="970" y="358" fill="#374151" font-weight="700">Practitioner response:</text>
    <text x="970" y="370" fill="#374151">Document gaps explicitly</text>
    <text x="970" y="382" fill="#374151">Build monitoring for what IS</text>
    <text x="970" y="394" fill="#374151">reachable by the framework</text>
    <text x="970" y="410" fill="#059669" font-weight="700">Direction is right — gaps are</text>
    <text x="970" y="422" fill="#059669" font-weight="700">transitional, not permanent</text>
									 <text x="970" y="438" fill="#374151">ACAMS 4.3.3 · FATF R.15/R.2</text>
    <text x="970" y="450" fill="#374151">BSA · CLARITY Act DeFi title</text>
  </g>

  <!-- ══════════════════════════════════ -->
  <!-- BOTTOM PANELS                      -->
  <!-- ══════════════════════════════════ -->
  <rect x="14" y="598" width="560" height="110" rx="3" fill="#eff6ff" stroke="#1a3a6b" stroke-width="1"/>
  <rect x="14" y="598" width="560" height="18" rx="3" fill="#1a3a6b"/>
  <text x="294" y="610" font-size="8" fill="#fff" font-weight="700" text-anchor="middle">Classification → AML Obligation Map</text>
  <g font-size="7.5" fill="#374151">
    <text x="22" y="630">Stablecoins (PPSI) → FinCEN + OCC · Full BSA AML · Monthly attestation · SAR · Freeze capability</text>
    <text x="22" y="643">Digital commodities (Bitcoin/ETH) → CFTC + FinCEN · BSA program · KYC · SAR · Pending rulemaking</text>
    <text x="22" y="656">Investment contracts (tokens) → SEC + FinCEN · Existing securities AML · Howey test applies</text>
    <text x="22" y="669">DeFi intermediaries → BSA · AML program · Examination by relevant regulator</text>
    <text x="22" y="682">Crypto ATMs → Registration · Consumer protection · Compliance officer · Holding periods</text>
    <text x="22" y="695" fill="#1a3a6b" font-weight="700">Practitioner rule: apply conservative BSA standard to ALL during transition period</text>
  </g>

  <!-- Connections to series -->
  <rect x="586" y="598" width="540" height="110" rx="3" fill="#f5f0ff" stroke="#7c3aed" stroke-width="1"/>
  <rect x="586" y="598" width="540" height="18" rx="3" fill="#7c3aed"/>
  <text x="856" y="610" font-size="8" fill="#fff" font-weight="700" text-anchor="middle">How CLARITY Closes Gaps from This Research Series</text>
  <g font-size="7.5" fill="#374151">
    <text x="594" y="630">AML-IR-2026-004 (Tornado Cash): Frontend operators → BSA obligations. Code still immutable — access layer regulated.</text>
    <text x="594" y="643">AML-IR-2026-006 (Bybit): THORChain routing intermediaries → BSA. Protocol permissionless — access layer = chokepoint.</text>
    <text x="594" y="656">AML-IR-2026-007 (Brazil P2P): CLARITY DeFi model = international precedent for PL 5256/2025 approach.</text>
    <text x="594" y="669">AML-IR-2026-010 (GENIUS): GENIUS + CLARITY = complete US framework. Stablecoins + everything else covered.</text>
    <text x="594" y="682" fill="#7c3aed" font-weight="700">DeFi title = regulatory answer to the core question of this series: "Who is responsible for AML in decentralized systems?"</text>
    <text x="594" y="695" fill="#374151">Answer: The access layer — frontends, routers, aggregators — not the protocol itself.</text>
  </g>

  <!-- Summary box -->
  <rect x="1138" y="598" width="286" height="110" rx="3" fill="#f0fdf4" stroke="#059669" stroke-width="1"/>
  <rect x="1138" y="598" width="286" height="18" rx="3" fill="#059669"/>
  <text x="1281" y="610" font-size="8" fill="#fff" font-weight="700" text-anchor="middle">3 Practitioner Takeaways</text>
  <g font-size="7.5" fill="#374151">
    <text x="1146" y="630">1. Classification = compliance input.</text>
    <text x="1146" y="642">   Document asset type in every risk</text>
    <text x="1146" y="654">   assessment explicitly.</text>
    <text x="1146" y="666">2. DeFi access layer = new AML frontier.</text>
    <text x="1146" y="678">   Include access layer analysis in all</text>
    <text x="1146" y="690">   DeFi-related investigations.</text>
    <text x="1146" y="702">3. Framework incomplete but right direction.</text>
    <text x="1146" y="714">   Gaps are transitional — stay current.</text>
  </g>

  <!-- TIMELINE -->
  <rect x="0" y="718" width="1440" height="72" fill="#f8fafc"/>
  <rect x="0" y="718" width="1440" height="1" fill="#e2e8f0"/>
  <text x="20" y="736" font-size="7.5" fill="#1a3a6b" font-weight="700">Legislative Timeline:</text>
  <line x1="100" y1="758" x2="1400" y2="758" stroke="#1a3a6b" stroke-width="1.5"/>

  <g font-size="7" text-anchor="middle">
    <circle cx="150" cy="758" r="5" fill="#059669"/>
    <line x1="150" y1="753" x2="150" y2="738" stroke="#059669" stroke-width="1"/>
    <text x="150" y="735" fill="#059669">May 29, 2025</text>
    <text x="150" y="770" fill="#374151">CLARITY Act</text>
    <text x="150" y="779" fill="#374151">introduced House</text>

    <circle cx="360" cy="758" r="6" fill="#059669" stroke="#1a3a6b" stroke-width="1.5"/>
    <line x1="360" y1="752" x2="360" y2="734" stroke="#059669" stroke-width="2"/>
    <text x="360" y="731" fill="#059669" font-weight="700">Jul 18, 2025</text>
    <text x="360" y="770" fill="#059669" font-weight="700">GENIUS Act signed</text>
    <text x="360" y="779" fill="#374151">Stablecoins: in effect</text>

    <circle cx="570" cy="758" r="5" fill="#d97706"/>
    <line x1="570" y1="753" x2="570" y2="738" stroke="#d97706" stroke-width="1"/>
    <text x="570" y="735" fill="#d97706">Jul 22, 2025</text>
    <text x="570" y="770" fill="#374151">CLARITY House</text>
    <text x="570" y="779" fill="#374151">passed ✓</text>

    <circle cx="760" cy="758" r="5" fill="#059669"/>
    <line x1="760" y1="753" x2="760" y2="738" stroke="#059669" stroke-width="1"/>
    <text x="760" y="735" fill="#059669">Apr 8, 2026</text>
    <text x="760" y="770" fill="#374151">FinCEN/OFAC NPRM</text>
    <text x="760" y="779" fill="#374151">GENIUS AML rules</text>

    <circle cx="960" cy="758" r="6" fill="#d97706" stroke="#1a3a6b" stroke-width="1.5"/>
    <line x1="960" y1="752" x2="960" y2="734" stroke="#d97706" stroke-width="2"/>
    <text x="960" y="731" fill="#d97706" font-weight="700">May 14, 2026</text>
    <text x="960" y="770" fill="#d97706" font-weight="700">Senate Banking</text>
    <text x="960" y="779" fill="#374151">CLARITY advanced ✓</text>

    <circle cx="1160" cy="758" r="5" fill="#374151"/>
    <line x1="1160" y1="753" x2="1160" y2="738" stroke="#374151" stroke-width="1"/>
    <text x="1160" y="735" fill="#374151">2026 (pending)</text>
    <text x="1160" y="770" fill="#374151">Senate floor vote</text>
    <text x="1160" y="779" fill="#374151">+ House reconciliation</text>

    <circle cx="1340" cy="758" r="5" fill="#374151"/>
    <line x1="1340" y1="753" x2="1340" y2="738" stroke="#374151" stroke-width="1"/>
    <text x="1340" y="735" fill="#374151">2027-2028</text>
    <text x="1340" y="770" fill="#374151">Implementing</text>
    <text x="1340" y="779" fill="#374151">regulations final</text>
  </g>

  <!-- Footer -->
  <rect x="0" y="800" width="1440" height="20" fill="#1a3a6b"/>
  <text x="16" y="813" font-size="7" fill="#93c5fd">Author: Phelipe Agnelli — AML &amp; Blockchain Forensics  ·  Sources: CLARITY Act · GENIUS Act · Senate Banking Committee · FinCEN/OFAC · Davis Wright Tremaine · K&amp;L Gates  ·  AML-IR-2026-011</text>
  <text x="1424" y="813" font-size="7" fill="#93c5fd" text-anchor="end">github.com/PhelipeAgnelli/aml-blockchain-research</text>
</svg>
