<?xml version="1.0" encoding="UTF-8"?>
<svg xmlns="http://www.w3.org/2000/svg" viewBox="0 0 1440 860" font-family="Arial, Helvetica, sans-serif">

  <!-- Background -->
  <rect width="1440" height="860" fill="#ffffff"/>

  <!-- Header -->
  <rect x="0" y="0" width="1440" height="52" fill="#1a3a6b"/>
  <text x="20" y="20" font-size="11" fill="#ffffff" font-weight="700" letter-spacing="1">REGULATORY ANALYSIS — BRAZIL'S CRYPTO AML FRAMEWORK: THREE CRITICAL GAPS</text>
  <text x="20" y="38" font-size="9.5" fill="#93c5fd">Case AML-IR-2026-007  ·  BCB Resolutions 519/520/521  ·  IN RFB 2.291/2025 (DeCripto)  ·  Lei 14.478/2022  ·  Effective: February 2026</text>
  <text x="1380" y="30" font-size="8" fill="#93c5fd" text-anchor="end">ACAMS · FATF · Lei 9.613/1998 · BCB</text>

  <!-- Section title -->
  <text x="20" y="74" font-size="11" fill="#1a3a6b" font-weight="700">Framework Flow Diagram — Reporting Obligations vs. Analytical Gaps</text>
  <line x1="20" y1="78" x2="1380" y2="78" stroke="#1a3a6b" stroke-width="1.5"/>

  <!-- ARROWS -->
  <defs>
    <marker id="arr-red"    markerWidth="9" markerHeight="7" refX="8" refY="3.5" orient="auto"><polygon points="0 0,9 3.5,0 7" fill="#dc2626"/></marker>
    <marker id="arr-blue"   markerWidth="9" markerHeight="7" refX="8" refY="3.5" orient="auto"><polygon points="0 0,9 3.5,0 7" fill="#1a3a6b"/></marker>
    <marker id="arr-green"  markerWidth="9" markerHeight="7" refX="8" refY="3.5" orient="auto"><polygon points="0 0,9 3.5,0 7" fill="#059669"/></marker>
    <marker id="arr-orange" markerWidth="9" markerHeight="7" refX="8" refY="3.5" orient="auto"><polygon points="0 0,9 3.5,0 7" fill="#d97706"/></marker>
    <marker id="arr-gray"   markerWidth="9" markerHeight="7" refX="8" refY="3.5" orient="auto"><polygon points="0 0,9 3.5,0 7" fill="#6b7280"/></marker>
    <marker id="arr-purple" markerWidth="9" markerHeight="7" refX="8" refY="3.5" orient="auto"><polygon points="0 0,9 3.5,0 7" fill="#7c3aed"/></marker>
  </defs>

  <!-- MAIN TIMELINE -->
  <line x1="60" y1="420" x2="1380" y2="420" stroke="#1a3a6b" stroke-width="2"/>
  <text x="20" y="416" font-size="8" fill="#1a3a6b" font-weight="700">Flow</text>

  <!-- ══════════════════════════════════════ -->
  <!-- ACTOR 1: CUSTOMER / TRANSACTION        -->
  <!-- ══════════════════════════════════════ -->
  <rect x="62" y="388" width="68" height="64" rx="4" fill="#eff6ff" stroke="#1a3a6b" stroke-width="1.5"/>
  <circle cx="96" cy="406" r="10" fill="#1a3a6b"/>
  <text x="96" y="410" font-size="10" fill="#fff" text-anchor="middle">👤</text>
  <rect x="68" y="418" width="56" height="22" rx="3" fill="#1a3a6b"/>
  <text x="96" y="430" font-size="6.5" fill="#fff" text-anchor="middle" font-weight="700">CUSTOMER</text>
  <text x="96" y="440" font-size="6" fill="#6b7280" text-anchor="middle">CPF identified</text>
  <text x="96" y="450" font-size="6" fill="#1a3a6b" text-anchor="middle" font-weight="700">BCB Res. 519</text>

  <!-- Customer characteristics -->
  <rect x="14" y="88" width="164" height="190" rx="3" fill="#eff6ff" stroke="#1a3a6b" stroke-width="1"/>
  <rect x="14" y="88" width="164" height="18" rx="3" fill="#1a3a6b"/>
  <text x="96" y="100" font-size="8" fill="#fff" font-weight="700" text-anchor="middle">BCB Res. 519 — KYC</text>
  <text x="22" y="118" font-size="7.5" fill="#374151">• CPF mandatory for all users</text>
  <text x="22" y="131" font-size="7.5" fill="#374151">• Tiered KYC (basic → advanced)</text>
  <text x="22" y="144" font-size="7.5" fill="#374151">• Liveness selfie + ID for PIX</text>
  <text x="22" y="157" font-size="7.5" fill="#374151">  > R$50,000</text>
  <text x="22" y="170" font-size="7.5" fill="#374151">• Sanctions screening mandatory</text>
  <text x="22" y="183" font-size="7.5" fill="#374151">• PEP monitoring required</text>
  <text x="22" y="196" font-size="7.5" fill="#374151">• Self-hosted wallet: owner</text>
  <text x="22" y="208" font-size="7.5" fill="#374151">  identification required</text>
  <text x="22" y="225" font-size="7.5" fill="#059669" font-weight="700">✓ Strong foundation</text>
  <text x="22" y="237" font-size="7.5" fill="#374151">ACAMS 4.1 · FATF R.10</text>
  <text x="22" y="249" font-size="7.5" fill="#374151">BCB Res. 519/2025</text>
  <line x1="96" y1="278" x2="96" y2="388" stroke="#1a3a6b" stroke-width="1" stroke-dasharray="4,3"/>

  <!-- ══════════════════════════════════════ -->
  <!-- ACTOR 2: PSAV (Exchange)               -->
  <!-- ══════════════════════════════════════ -->
  <rect x="226" y="388" width="70" height="64" rx="4" fill="#f0fdf4" stroke="#059669" stroke-width="2"/>
  <circle cx="261" cy="406" r="10" fill="#059669"/>
  <text x="261" y="410" font-size="10" fill="#fff" text-anchor="middle">🏦</text>
  <rect x="232" y="418" width="58" height="22" rx="3" fill="#059669"/>
  <text x="261" y="430" font-size="6.5" fill="#fff" text-anchor="middle" font-weight="700">PSAV</text>
  <text x="261" y="440" font-size="6" fill="#6b7280" text-anchor="middle">BCB authorized</text>
  <text x="261" y="450" font-size="6" fill="#059669" text-anchor="middle" font-weight="700">Feb 2026 →</text>

  <!-- Arrow Customer → PSAV -->
  <line x1="130" y1="420" x2="224" y2="420" stroke="#1a3a6b" stroke-width="2" marker-end="url(#arr-blue)"/>
  <rect x="136" y="404" width="82" height="14" rx="2" fill="#eff6ff" stroke="#1a3a6b" stroke-width="0.5"/>
  <text x="177" y="414" font-size="7" fill="#1a3a6b" text-anchor="middle" font-weight="700">KYC + transaction</text>

  <!-- PSAV obligations -->
  <rect x="190" y="88" width="178" height="210" rx="3" fill="#f0fdf4" stroke="#059669" stroke-width="1"/>
  <rect x="190" y="88" width="178" height="18" rx="3" fill="#059669"/>
  <text x="279" y="100" font-size="8" fill="#fff" font-weight="700" text-anchor="middle">PSAV Obligations (2026)</text>
  <text x="198" y="118" font-size="7.5" fill="#374151">✓ KYC/KYB all customers</text>
  <text x="198" y="131" font-size="7.5" fill="#374151">✓ STR → COAF (suspicious txs)</text>
  <text x="198" y="144" font-size="7.5" fill="#374151">✓ DeCripto → Receita Federal</text>
  <text x="198" y="157" font-size="7.5" fill="#374151">  (monthly, >R$35K)</text>
  <text x="198" y="170" font-size="7.5" fill="#374151">✓ BCB reporting (monthly,</text>
  <text x="198" y="182" font-size="7.5" fill="#374151">  from May 4, 2026)</text>
  <text x="198" y="195" font-size="7.5" fill="#374151">✓ Asset segregation</text>
  <text x="198" y="208" font-size="7.5" fill="#374151">✓ Proof of reserves (monthly)</text>
  <text x="198" y="225" font-size="7.5" fill="#dc2626" font-weight="700">⚠ 9-month compliance window</text>
  <text x="198" y="237" font-size="7.5" fill="#374151">Nov 2026: full compliance due</text>
  <text x="198" y="254" font-size="7.5" fill="#374151">BCB Res. 519/520/521</text>
  <text x="198" y="266" font-size="7.5" fill="#374151">Lei 14.478/2022 · Lei 9.613/1998</text>
  <line x1="261" y1="298" x2="261" y2="388" stroke="#059669" stroke-width="1" stroke-dasharray="4,3"/>

  <!-- ══════════════════════════════════════ -->
  <!-- SPLIT: Two reporting paths             -->
  <!-- ══════════════════════════════════════ -->

  <!-- PATH A: STR → COAF -->
  <rect x="380" y="340" width="72" height="60" rx="4" fill="#fff8f8" stroke="#dc2626" stroke-width="2"/>
  <circle cx="416" cy="358" r="10" fill="#dc2626"/>
  <text x="416" y="362" font-size="10" fill="#fff" text-anchor="middle">⚠</text>
  <rect x="386" y="370" width="60" height="18" rx="3" fill="#dc2626"/>
  <text x="416" y="382" font-size="6.5" fill="#fff" text-anchor="middle" font-weight="700">STR → COAF</text>
  <text x="416" y="392" font-size="6" fill="#6b7280" text-anchor="middle">Suspicious txs</text>

  <!-- PATH B: DeCripto → Receita -->
  <rect x="380" y="430" width="72" height="60" rx="4" fill="#fffbeb" stroke="#d97706" stroke-width="2"/>
  <circle cx="416" cy="448" r="10" fill="#d97706"/>
  <text x="416" y="452" font-size="10" fill="#fff" text-anchor="middle">📊</text>
  <rect x="386" y="460" width="60" height="18" rx="3" fill="#d97706"/>
  <text x="416" y="472" font-size="6.5" fill="#fff" text-anchor="middle" font-weight="700">DeCripto</text>
  <text x="416" y="482" font-size="6" fill="#6b7280" text-anchor="middle">Receita Federal</text>

  <!-- Arrows PSAV → two paths -->
  <line x1="296" y1="400" x2="378" y2="370" stroke="#dc2626" stroke-width="1.5" marker-end="url(#arr-red)"/>
  <line x1="296" y1="430" x2="378" y2="460" stroke="#d97706" stroke-width="1.5" marker-end="url(#arr-orange)"/>

  <!-- GAP 2 annotation -->
  <rect x="370" y="402" width="92" height="28" rx="3" fill="#fef9c3" stroke="#ca8a04" stroke-width="1"/>
  <text x="416" y="413" font-size="7" fill="#ca8a04" font-weight="700" text-anchor="middle">⚠ GAP #2</text>
  <text x="416" y="424" font-size="6.5" fill="#374151" text-anchor="middle">No integration</text>

  <!-- ══════════════════════════════════════ -->
  <!-- ACTOR 3: COAF                          -->
  <!-- ══════════════════════════════════════ -->
  <rect x="530" y="310" width="70" height="80" rx="4" fill="#fff8f8" stroke="#dc2626" stroke-width="2"/>
  <circle cx="565" cy="332" r="12" fill="#dc2626"/>
  <text x="565" y="337" font-size="12" fill="#fff" text-anchor="middle">🔍</text>
  <rect x="536" y="346" width="58" height="32" rx="3" fill="#dc2626"/>
  <text x="565" y="358" font-size="6.5" fill="#fff" text-anchor="middle" font-weight="700">COAF</text>
  <text x="565" y="368" font-size="6" fill="#fff" text-anchor="middle">Financial Intel Unit</text>
  <text x="565" y="379" font-size="6" fill="#fca5a5" text-anchor="middle" font-weight="700">No blockchain tools</text>
  <text x="565" y="388" font-size="5.5" fill="#fca5a5" text-anchor="middle">⚠ GAP #1</text>

  <!-- Arrow STR → COAF -->
  <line x1="452" y1="358" x2="528" y2="340" stroke="#dc2626" stroke-width="2" marker-end="url(#arr-red)"/>

  <!-- COAF gap box -->
  <rect x="510" y="88" width="200" height="210" rx="3" fill="#fff8f8" stroke="#dc2626" stroke-width="1"/>
  <rect x="510" y="88" width="200" height="18" rx="3" fill="#dc2626"/>
  <text x="610" y="100" font-size="8" fill="#fff" font-weight="700" text-anchor="middle">GAP #1 — COAF Cannot Investigate</text>
  <text x="518" y="118" font-size="7.5" fill="#374151">COAF receives STR with:</text>
  <text x="518" y="130" font-size="7.5" fill="#374151">• Bitcoin address</text>
  <text x="518" y="142" font-size="7.5" fill="#374151">• Transaction ID (TXID)</text>
  <text x="518" y="154" font-size="7.5" fill="#374151">• Narrative (suspicious behavior)</text>
  <text x="518" y="171" font-size="7.5" fill="#dc2626" font-weight="700">Without blockchain analytics:</text>
  <text x="518" y="183" font-size="7.5" fill="#374151">• Cannot trace on-chain</text>
  <text x="518" y="195" font-size="7.5" fill="#374151">• Cannot cluster addresses</text>
  <text x="518" y="207" font-size="7.5" fill="#374151">• Cannot verify exposure</text>
  <text x="518" y="219" font-size="7.5" fill="#374151">• STR enters system → stops</text>
  <text x="518" y="236" font-size="7.5" fill="#dc2626" font-weight="700">What other FIUs have:</text>
  <text x="518" y="248" font-size="7.5" fill="#374151">FinCEN (USA): Chainalysis KYT</text>
  <text x="518" y="260" font-size="7.5" fill="#374151">FIU-NL: TRM Labs integration</text>
  <text x="518" y="272" font-size="7.5" fill="#374151">AUSTRAC: in-house blockchain team</text>
  <text x="518" y="288" font-size="7.5" fill="#374151">ACAMS 7.3 · FATF R.29</text>
  <line x1="565" y1="390" x2="565" y2="420" stroke="#dc2626" stroke-width="1" stroke-dasharray="4,3"/>

  <!-- ══════════════════════════════════════ -->
  <!-- ACTOR 4: RECEITA FEDERAL              -->
  <!-- ══════════════════════════════════════ -->
  <rect x="530" y="440" width="70" height="64" rx="4" fill="#fffbeb" stroke="#d97706" stroke-width="1.5"/>
  <circle cx="565" cy="458" r="10" fill="#d97706"/>
  <text x="565" y="462" font-size="10" fill="#fff" text-anchor="middle">📋</text>
  <rect x="536" y="470" width="58" height="22" rx="3" fill="#d97706"/>
  <text x="565" y="482" font-size="6.5" fill="#fff" text-anchor="middle" font-weight="700">RECEITA FEDERAL</text>
  <text x="565" y="492" font-size="6" fill="#6b7280" text-anchor="middle">DeCripto reports</text>
  <text x="565" y="502" font-size="6" fill="#d97706" text-anchor="middle" font-weight="700">July 2026 →</text>

  <!-- Arrow DeCripto → Receita -->
  <line x1="452" y1="458" x2="528" y2="468" stroke="#d97706" stroke-width="2" marker-end="url(#arr-orange)"/>

  <!-- DeCripto gap box -->
  <rect x="510" y="310" width="200" height="120" rx="3" fill="#fffbeb" stroke="#d97706" stroke-width="1"/>
  <rect x="510" y="310" width="200" height="18" rx="3" fill="#d97706"/>
  <text x="610" y="322" font-size="8" fill="#fff" font-weight="700" text-anchor="middle">GAP #2 — Two Systems, No Bridge</text>
  <text x="518" y="340" font-size="7.5" fill="#374151">DeCripto → Receita Federal</text>
  <text x="518" y="352" font-size="7.5" fill="#374151">Fields: type, quantity, BRL value</text>
  <text x="518" y="364" font-size="7.5" fill="#374151">Purpose: tax intelligence</text>
  <text x="518" y="380" font-size="7.5" fill="#374151">STR → COAF</text>
  <text x="518" y="392" font-size="7.5" fill="#374151">Fields: narrative + tx data</text>
  <text x="518" y="404" font-size="7.5" fill="#374151">Purpose: financial crime intel</text>
  <text x="518" y="420" font-size="7.5" fill="#dc2626" font-weight="700">Zero cross-referencing between them</text>

  <!-- ══════════════════════════════════════ -->
  <!-- ACTOR 5: P2P / PIX BLIND ZONE         -->
  <!-- ══════════════════════════════════════ -->
  <rect x="700" y="388" width="76" height="64" rx="4" fill="#1a1a1a" stroke="#374151" stroke-width="2" stroke-dasharray="5,3"/>
  <circle cx="738" cy="406" r="10" fill="#374151"/>
  <text x="738" y="410" font-size="10" fill="#fff" text-anchor="middle">🕳</text>
  <rect x="706" y="418" width="64" height="22" rx="3" fill="#1f2937"/>
  <text x="738" y="430" font-size="6.5" fill="#9ca3af" text-anchor="middle" font-weight="700">P2P / PIX</text>
  <text x="738" y="440" font-size="6" fill="#6b7280" text-anchor="middle">No PSAV · No KYC</text>
  <text x="738" y="450" font-size="6" fill="#ef4444" text-anchor="middle" font-weight="700">⚠ GAP #3</text>

  <!-- Arrow indicating P2P bypasses system -->
  <path d="M 130 390 C 130 340 738 340 738 386" stroke="#ef4444" stroke-width="2" fill="none" stroke-dasharray="6,3" marker-end="url(#arr-red)"/>
  <text x="430" y="334" font-size="7.5" fill="#ef4444" font-weight="700" text-anchor="middle">P2P bypasses entire framework</text>

  <!-- P2P gap box -->
  <rect x="660" y="88" width="230" height="240" rx="3" fill="#111827" stroke="#374151" stroke-width="1"/>
  <rect x="660" y="88" width="230" height="18" rx="3" fill="#1f2937"/>
  <text x="775" y="100" font-size="8" fill="#9ca3af" font-weight="700" text-anchor="middle">GAP #3 — The P2P/PIX Blind Zone</text>
  <text x="668" y="118" font-size="7.5" fill="#9ca3af">Individual → individual BTC trade</text>
  <text x="668" y="131" font-size="7.5" fill="#9ca3af">settled via PIX</text>
  <text x="668" y="148" font-size="7.5" fill="#ef4444" font-weight="700">No PSAV → no reporting obligation</text>
  <text x="668" y="160" font-size="7.5" fill="#9ca3af">• No KYC at crypto layer</text>
  <text x="668" y="172" font-size="7.5" fill="#9ca3af">• No STR to COAF</text>
  <text x="668" y="184" font-size="7.5" fill="#9ca3af">• No DeCripto report</text>
  <text x="668" y="196" font-size="7.5" fill="#9ca3af">• PIX shows as bank transfer only</text>
  <text x="668" y="213" font-size="7.5" fill="#ef4444" font-weight="700">Legislative acknowledgment:</text>
  <text x="668" y="225" font-size="7.5" fill="#9ca3af">PL 5256/2025 (Senator Kajuru):</text>
  <text x="668" y="237" font-size="7.5" fill="#9ca3af">"Most vulnerable point to money</text>
  <text x="668" y="249" font-size="7.5" fill="#9ca3af">laundering in financial system"</text>
  <text x="668" y="266" font-size="7.5" fill="#ef4444" font-weight="700">Observed pattern:</text>
  <text x="668" y="278" font-size="7.5" fill="#9ca3af">PIX hack proceeds → informal P2P</text>
  <text x="668" y="290" font-size="7.5" fill="#9ca3af">operator → BTC → unhosted wallet</text>
  <text x="668" y="306" font-size="7.5" fill="#6b7280">ACAMS 3.2.1 · FATF R.15</text>
  <line x1="738" y1="452" x2="738" y2="524" stroke="#374151" stroke-width="1" stroke-dasharray="3,2"/>

  <!-- P2P below -->
  <rect x="664" y="524" width="180" height="60" rx="3" fill="#111827" stroke="#374151" stroke-width="1"/>
  <rect x="664" y="524" width="180" height="16" rx="3" fill="#1f2937"/>
  <text x="754" y="535" font-size="7.5" fill="#9ca3af" font-weight="700" text-anchor="middle">P2P Aggregation Pattern</text>
  <text x="672" y="552" font-size="7.5" fill="#9ca3af">Multiple small PIX (diff. CPFs)</text>
  <text x="672" y="564" font-size="7.5" fill="#9ca3af">→ crypto purchase → ext. wallet</text>
  <text x="672" y="576" font-size="7.5" fill="#ef4444" font-weight="700">EDD + STR consideration required</text>

  <!-- ══════════════════════════════════════ -->
  <!-- WHAT BRAZIL GOT RIGHT               -->
  <!-- ══════════════════════════════════════ -->
  <rect x="900" y="88" width="220" height="260" rx="3" fill="#f0fdf4" stroke="#059669" stroke-width="1.5"/>
  <rect x="900" y="88" width="220" height="18" rx="3" fill="#059669"/>
  <text x="1010" y="100" font-size="8" fill="#fff" font-weight="700" text-anchor="middle">What Brazil Got Right ✓</text>
  <text x="908" y="118" font-size="7.5" fill="#374151" font-weight="700">BCB Res. 519 — Authorization</text>
  <text x="908" y="130" font-size="7.5" fill="#374151">Operating w/o BCB auth: prohibited</text>
  <text x="908" y="142" font-size="7.5" fill="#374151">30-day wind-down for non-compliant</text>
  <text x="908" y="158" font-size="7.5" fill="#374151" font-weight="700">BCB Res. 521 — Self-hosted wallet</text>
  <text x="908" y="170" font-size="7.5" fill="#374151">Owner ID required for transfers</text>
  <text x="908" y="182" font-size="7.5" fill="#374151">Ahead of many EU MiCA jurisdictions</text>
  <text x="908" y="198" font-size="7.5" fill="#374151" font-weight="700">BCB Res. 521 — FX integration</text>
  <text x="908" y="210" font-size="7.5" fill="#374151">Stablecoins under FX framework</text>
  <text x="908" y="222" font-size="7.5" fill="#374151">Prevents capital control evasion</text>
  <text x="908" y="238" font-size="7.5" fill="#374151" font-weight="700">DeCripto (IN RFB 2.291/2025)</text>
  <text x="908" y="250" font-size="7.5" fill="#374151">OECD CARF aligned</text>
  <text x="908" y="262" font-size="7.5" fill="#374151">International data exchange</text>
  <text x="908" y="278" font-size="7.5" fill="#374151" font-weight="700">Monthly BCB reporting</text>
  <text x="908" y="290" font-size="7.5" fill="#374151">From May 4, 2026</text>
  <text x="908" y="302" font-size="7.5" fill="#374151">Full transaction-level audit trail</text>
  <text x="908" y="318" font-size="7.5" fill="#059669" font-weight="700">Brazil: ahead of most LATAM peers</text>
  <text x="908" y="330" font-size="7.5" fill="#374151">Lei 14.478/2022 · BCB Res. 519-521</text>

  <!-- ══════════════════════════════════════ -->
  <!-- THREE RECOMMENDATIONS                  -->
  <!-- ══════════════════════════════════════ -->
  <rect x="900" y="364" width="220" height="230" rx="3" fill="#fefce8" stroke="#ca8a04" stroke-width="1.5"/>
  <rect x="900" y="364" width="220" height="18" rx="3" fill="#ca8a04"/>
  <text x="1010" y="376" font-size="8" fill="#fff" font-weight="700" text-anchor="middle">3 Priority Recommendations</text>
  <text x="908" y="394" font-size="7.5" fill="#ca8a04" font-weight="700">1. COAF — Blockchain Analytics Now</text>
  <text x="908" y="406" font-size="7.5" fill="#374151">Not eventually. STR reporting began</text>
  <text x="908" y="418" font-size="7.5" fill="#374151">Feb 2026. Every uninvestigated STR</text>
  <text x="908" y="430" font-size="7.5" fill="#374151">is wasted intelligence. License</text>
  <text x="908" y="442" font-size="7.5" fill="#374151">Chainalysis/TRM or build internally.</text>
  <text x="908" y="458" font-size="7.5" fill="#ca8a04" font-weight="700">2. DeCripto/STR Unified Interface</text>
  <text x="908" y="470" font-size="7.5" fill="#374151">July 2026 DeCripto launch = right</text>
  <text x="908" y="482" font-size="7.5" fill="#374151">moment to build integration. Internal</text>
  <text x="908" y="494" font-size="7.5" fill="#374151">cross-reference requirement would</text>
  <text x="908" y="506" font-size="7.5" fill="#374151">close most of the analytical gap.</text>
  <text x="908" y="522" font-size="7.5" fill="#ca8a04" font-weight="700">3. P2P Guidance — Cannot Wait</text>
  <text x="908" y="534" font-size="7.5" fill="#374151">While PL 5256/2025 pending: BCB +</text>
  <text x="908" y="546" font-size="7.5" fill="#374151">COAF should issue guidance on P2P</text>
  <text x="908" y="558" font-size="7.5" fill="#374151">obligations under Lei 9.613/1998.</text>
  <text x="908" y="570" font-size="7.5" fill="#374151">Legal framework already exists.</text>
  <text x="908" y="586" font-size="7.5" fill="#059669" font-weight="700">"Brazil built the walls. Three</text>
  <text x="908" y="598" font-size="7.5" fill="#059669" font-weight="700">doors are still unlocked."</text>

  <!-- ══════════════════════════════════════ -->
  <!-- TYPOLOGIES BOX                         -->
  <!-- ══════════════════════════════════════ -->
  <rect x="1134" y="88" width="290" height="506" rx="3" fill="#fff8f8" stroke="#dc2626" stroke-width="1"/>
  <rect x="1134" y="88" width="290" height="18" rx="3" fill="#dc2626"/>
  <text x="1279" y="100" font-size="8" fill="#fff" font-weight="700" text-anchor="middle">AML Typologies — Brazilian Crypto Context</text>

  <g font-size="7.5">
    <rect x="1138" y="110" width="282" height="30" rx="2" fill="#fff0f0"/>
    <text x="1142" y="122" fill="#dc2626" font-weight="700">1. P2P Aggregation via PIX</text>
    <text x="1142" y="134" fill="#374151">Multiple PIX → immediate crypto → ext. wallet · ACAMS 3.2.1</text>

    <rect x="1138" y="143" width="282" height="30" rx="2" fill="#fff0f0"/>
    <text x="1142" y="155" fill="#dc2626" font-weight="700">2. Structuring Below R$35K Threshold</text>
    <text x="1142" y="167" fill="#374151">Multiple txs just below DeCripto reporting limit · ACAMS 3.1.4</text>

    <rect x="1138" y="176" width="282" height="30" rx="2" fill="#fff0f0"/>
    <text x="1142" y="188" fill="#dc2626" font-weight="700">3. Self-Hosted Wallet Layering</text>
    <text x="1142" y="200" fill="#374151">PSAV → unhosted wallet → unknown dest. · BCB Res. 521</text>

    <rect x="1138" y="209" width="282" height="30" rx="2" fill="#fff0f0"/>
    <text x="1142" y="221" fill="#dc2626" font-weight="700">4. Stablecoin FX Evasion</text>
    <text x="1142" y="233" fill="#374151">BRL → USDT → intl transfer to bypass FX · BCB Res. 521</text>

    <rect x="1138" y="242" width="282" height="30" rx="2" fill="#fff0f0"/>
    <text x="1142" y="254" fill="#dc2626" font-weight="700">5. Unauthorized Foreign Exchange Use</text>
    <text x="1142" y="266" fill="#374151">Brazilians using non-BCB-authorized PSAVs · BCB Res. 519</text>

    <rect x="1138" y="275" width="282" height="30" rx="2" fill="#fff0f0"/>
    <text x="1142" y="287" fill="#dc2626" font-weight="700">6. Third-Party PIX → Crypto</text>
    <text x="1142" y="299" fill="#374151">Funds from unrelated CPFs → crypto purchase · ACAMS 6.1</text>

    <rect x="1138" y="308" width="282" height="30" rx="2" fill="#fff0f0"/>
    <text x="1142" y="320" fill="#dc2626" font-weight="700">7. STR Gap Exploitation</text>
    <text x="1142" y="332" fill="#374151">Txs structured to trigger DeCripto, avoid STR · ACAMS 7.3</text>
  </g>

  <!-- Analyst actions box -->
  <rect x="1134" y="350" width="290" height="244" rx="3" fill="#eff6ff" stroke="#1a3a6b" stroke-width="1"/>
  <rect x="1134" y="350" width="290" height="18" rx="3" fill="#1a3a6b"/>
  <text x="1279" y="362" font-size="8" fill="#fff" font-weight="700" text-anchor="middle">What I Do as AML Analyst Today</text>
  <g font-size="7.5" fill="#374151">
    <text x="1142" y="382">STR to COAF — include full on-chain data:</text>
    <text x="1142" y="394">origin address + TXID + blockchain + analytics output</text>
    <text x="1142" y="410">Cross-reference STR with DeCripto internally</text>
    <text x="1142" y="422">even if government systems don't integrate</text>
    <text x="1142" y="438">P2P pattern monitoring:</text>
    <text x="1142" y="450">multiple small PIX (diff. CPFs) → immediate</text>
    <text x="1142" y="462">crypto purchase → external wallet = EDD trigger</text>
    <text x="1142" y="478">Document STR decision explicitly when</text>
    <text x="1142" y="490">DeCripto-reportable tx also has red flags</text>
    <text x="1142" y="506">EDD for R$50K+ with no verifiable source</text>
    <text x="1142" y="518">beyond "personal savings"</text>
    <text x="1142" y="534">PIX-to-crypto within compressed timeframe</text>
    <text x="1142" y="546">= specific monitoring rule required</text>
    <text x="1142" y="562" fill="#dc2626" font-weight="700">Lei 9.613/1998 · BCB Res. 519/521</text>
    <text x="1142" y="574" fill="#374151">ACAMS CAMS 10th Ed. · FATF R.20/R.29</text>
    <text x="1142" y="586" fill="#374151">IN RFB 2.291/2025 · PL 5256/2025</text>
  </g>

  <!-- ══════════════════════════════════════ -->
  <!-- BOTTOM: RED FLAGS                      -->
  <!-- ══════════════════════════════════════ -->
  <rect x="14" y="598" width="870" height="110" rx="3" fill="#fff8f8" stroke="#dc2626" stroke-width="1"/>
  <rect x="14" y="598" width="870" height="18" rx="3" fill="#dc2626"/>
  <text x="449" y="610" font-size="8" fill="#fff" font-weight="700" text-anchor="middle">AML Red Flags — Brazilian Crypto Compliance Context</text>
  <g font-size="7.5" fill="#374151">
    <text x="22" y="630">• COAF STR gap: on-chain data in STR cannot be investigated without blockchain analytics — compliance theater risk (ACAMS 7.3)</text>
    <text x="22" y="643">• DeCripto/STR parallel systems: same transaction reported twice to different agencies in different formats with no cross-referencing</text>
    <text x="22" y="656">• P2P via PIX: largest unmonitored crypto channel in Brazil — no KYC, no STR, no DeCripto, no reporting entity (FATF R.15)</text>
    <text x="22" y="669">• Structuring below R$35K DeCripto threshold — multiple transactions just under limit (ACAMS 3.1.4 · Lei 9.613/1998)</text>
    <text x="22" y="682">• Self-hosted wallet transfers without owner identification — BCB Res. 521 gap in enforcement</text>
    <text x="22" y="695" fill="#dc2626" font-weight="700">Frameworks: ACAMS 7.3 · FATF R.15/R.20/R.29 · Lei 9.613/1998 · BCB Res. 519/520/521 · IN RFB 2.291/2025</text>
  </g>

  <!-- ══════════════════════════════════════ -->
  <!-- TIMELINE                               -->
  <!-- ══════════════════════════════════════ -->
  <rect x="0" y="718" width="1440" height="72" fill="#f8fafc"/>
  <rect x="0" y="718" width="1440" height="1" fill="#e2e8f0"/>
  <text x="20" y="736" font-size="7.5" fill="#1a3a6b" font-weight="700">Regulatory Timeline:</text>
  <line x1="100" y1="748" x2="1400" y2="748" stroke="#1a3a6b" stroke-width="1.5"/>

  <g font-size="7" text-anchor="middle">
    <circle cx="140" cy="748" r="5" fill="#374151"/>
    <line x1="140" y1="743" x2="140" y2="728" stroke="#374151" stroke-width="1"/>
    <text x="140" y="725" fill="#374151">Aug 2022</text>
    <text x="140" y="760" fill="#374151">Lei 14.478/2022</text>
    <text x="140" y="769" fill="#374151">Marco Cripto</text>

    <circle cx="360" cy="748" r="5" fill="#d97706"/>
    <line x1="360" y1="743" x2="360" y2="728" stroke="#d97706" stroke-width="1"/>
    <text x="360" y="725" fill="#d97706">Nov 2025</text>
    <text x="360" y="760" fill="#374151">BCB Res. 519/520/521</text>
    <text x="360" y="769" fill="#374151">+ DeCripto published</text>

    <circle cx="580" cy="748" r="6" fill="#059669" stroke="#1a3a6b" stroke-width="1.5"/>
    <line x1="580" y1="742" x2="580" y2="724" stroke="#059669" stroke-width="2"/>
    <text x="580" y="721" fill="#059669" font-weight="700">Feb 2, 2026</text>
    <text x="580" y="760" fill="#059669" font-weight="700">Framework live</text>
    <text x="580" y="769" fill="#374151">KYC/STR/COAF active</text>

    <circle cx="780" cy="748" r="5" fill="#d97706"/>
    <line x1="780" y1="743" x2="780" y2="728" stroke="#d97706" stroke-width="1"/>
    <text x="780" y="725" fill="#d97706">May 4, 2026</text>
    <text x="780" y="760" fill="#374151">BCB monthly</text>
    <text x="780" y="769" fill="#374151">reporting begins</text>

    <circle cx="980" cy="748" r="5" fill="#dc2626"/>
    <line x1="980" y1="743" x2="980" y2="728" stroke="#dc2626" stroke-width="1"/>
    <text x="980" y="725" fill="#dc2626">July 2026</text>
    <text x="980" y="760" fill="#374151">DeCripto mandatory</text>
    <text x="980" y="769" fill="#dc2626">⚠ Gap #2 critical</text>

    <circle cx="1180" cy="748" r="5" fill="#374151"/>
    <line x1="1180" y1="743" x2="1180" y2="728" stroke="#374151" stroke-width="1"/>
    <text x="1180" y="725" fill="#374151">Oct 2026</text>
    <text x="1180" y="760" fill="#374151">Banks prohibited from</text>
    <text x="1180" y="769" fill="#374151">serving unauth. PSAVs</text>

    <circle cx="1360" cy="748" r="5" fill="#dc2626"/>
    <line x1="1360" y1="743" x2="1360" y2="728" stroke="#dc2626" stroke-width="1"/>
    <text x="1360" y="725" fill="#dc2626">Nov 2026</text>
    <text x="1360" y="760" fill="#374151">Full compliance</text>
    <text x="1360" y="769" fill="#374151">deadline for PSAVs</text>
  </g>

  <!-- Footer -->
  <rect x="0" y="790" width="1440" height="20" fill="#1a3a6b"/>
  <text x="16" y="803" font-size="7" fill="#93c5fd">Author: Phelipe Agnelli — AML &amp; Blockchain Forensics  ·  Sources: BCB Resolutions 519/520/521 · IN RFB 2.291/2025 · Lei 14.478/2022 · Lei 9.613/1998 · PL 5256/2025 · COAF · FATF  ·  AML-IR-2026-007</text>
  <text x="1424" y="803" font-size="7" fill="#93c5fd" text-anchor="end">github.com/PhelipeAgnelli/aml-blockchain-research</text>
</svg>
