<?xml version="1.0" encoding="UTF-8"?>
<svg xmlns="http://www.w3.org/2000/svg" viewBox="0 0 1440 860" font-family="Arial, Helvetica, sans-serif">

  <!-- Background -->
  <rect width="1440" height="860" fill="#ffffff"/>

  <!-- Header -->
  <rect x="0" y="0" width="1440" height="52" fill="#1a3a6b"/>
  <text x="20" y="20" font-size="11" fill="#ffffff" font-weight="700" letter-spacing="1">REGULATORY ANALYSIS — STABLECOINS UNDER SCRUTINY: GENIUS ACT AND BRAZIL'S FRAMEWORK</text>
  <text x="20" y="38" font-size="9.5" fill="#93c5fd">Case AML-IR-2026-010  ·  GENIUS Act (July 2025)  ·  FinCEN/OFAC NPRM (April 2026)  ·  BCB Res. 519/521/561  ·  $319B market cap</text>
  <text x="1380" y="30" font-size="8" fill="#93c5fd" text-anchor="end">ACAMS · FATF · BSA · OFAC · Lei 9.613</text>

  <!-- Section title -->
  <text x="20" y="74" font-size="11" fill="#1a3a6b" font-weight="700">Stablecoin AML Compliance Flow — Two Converging Frameworks</text>
  <line x1="20" y1="78" x2="1380" y2="78" stroke="#1a3a6b" stroke-width="1.5"/>

  <!-- ARROWS -->
  <defs>
    <marker id="arr-red"    markerWidth="9" markerHeight="7" refX="8" refY="3.5" orient="auto"><polygon points="0 0,9 3.5,0 7" fill="#dc2626"/></marker>
    <marker id="arr-blue"   markerWidth="9" markerHeight="7" refX="8" refY="3.5" orient="auto"><polygon points="0 0,9 3.5,0 7" fill="#1a3a6b"/></marker>
    <marker id="arr-green"  markerWidth="9" markerHeight="7" refX="8" refY="3.5" orient="auto"><polygon points="0 0,9 3.5,0 7" fill="#059669"/></marker>
    <marker id="arr-orange" markerWidth="9" markerHeight="7" refX="8" refY="3.5" orient="auto"><polygon points="0 0,9 3.5,0 7" fill="#d97706"/></marker>
    <marker id="arr-purple" markerWidth="9" markerHeight="7" refX="8" refY="3.5" orient="auto"><polygon points="0 0,9 3.5,0 7" fill="#7c3aed"/></marker>
  </defs>

  <!-- MAIN TIMELINE -->
  <line x1="60" y1="420" x2="1380" y2="420" stroke="#1a3a6b" stroke-width="2"/>
  <text x="20" y="416" font-size="8" fill="#1a3a6b" font-weight="700">Flow</text>

  <!-- ══════════════════════════════════ -->
  <!-- ACTOR 1: STABLECOIN ISSUER         -->
  <!-- ══════════════════════════════════ -->
  <rect x="62" y="388" width="72" height="64" rx="4" fill="#eff6ff" stroke="#1a3a6b" stroke-width="2"/>
  <circle cx="98" cy="406" r="12" fill="#1a3a6b"/>
  <text x="98" y="411" font-size="14" fill="#fff" text-anchor="middle">💵</text>
  <rect x="68" y="420" width="60" height="20" rx="3" fill="#1a3a6b"/>
  <text x="98" y="432" font-size="6.5" fill="#fff" text-anchor="middle" font-weight="700">ISSUER</text>
  <text x="98" y="442" font-size="6" fill="#6b7280" text-anchor="middle">USDC / USDT</text>
  <text x="98" y="450" font-size="5.5" fill="#1a3a6b" text-anchor="middle">Circle / Tether</text>

  <!-- Issuer box -->
  <rect x="14" y="88" width="170" height="260" rx="3" fill="#eff6ff" stroke="#1a3a6b" stroke-width="1"/>
  <rect x="14" y="88" width="170" height="18" rx="3" fill="#1a3a6b"/>
  <text x="99" y="100" font-size="8" fill="#fff" font-weight="700" text-anchor="middle">Issuer Landscape 2026</text>
  <text x="22" y="120" font-size="7.5" fill="#374151" font-weight="700">USDC (Circle) — PPSI compliant:</text>
  <text x="22" y="132" font-size="7.5" fill="#374151">• Monthly reserve attestations</text>
  <text x="22" y="144" font-size="7.5" fill="#374151">• Annual Big Four audit</text>
  <text x="22" y="156" font-size="7.5" fill="#374151">• Full BSA AML program</text>
  <text x="22" y="168" font-size="7.5" fill="#374151">• On-chain freeze capability</text>
  <text x="22" y="180" font-size="7.5" fill="#374151">• IPO 2025 — public disclosures</text>
  <text x="22" y="196" font-size="7.5" fill="#d97706" font-weight="700">USDT (Tether) — El Salvador:</text>
  <text x="22" y="208" font-size="7.5" fill="#374151">• Outside GENIUS Act scope</text>
  <text x="22" y="220" font-size="7.5" fill="#374151">• Big Four audit contracted</text>
  <text x="22" y="232" font-size="7.5" fill="#374151">  (Apr 2026 — in progress)</text>
  <text x="22" y="244" font-size="7.5" fill="#374151">• $184B market cap</text>
  <text x="22" y="256" font-size="7.5" fill="#374151">• 550M+ users worldwide</text>
  <text x="22" y="272" font-size="7.5" fill="#dc2626" font-weight="700">Gap: S.3907 (Reed) pending</text>
  <text x="22" y="284" font-size="7.5" fill="#374151">Foreign Stablecoin Transparency</text>
  <text x="22" y="296" font-size="7.5" fill="#374151">Act — closes Tether gap</text>
  <text x="22" y="312" font-size="7.5" fill="#374151">ACAMS 4.1 · GENIUS Act §4</text>
  <text x="22" y="324" font-size="7.5" fill="#374151">FATF R.15 · BSA</text>
  <line x1="98" y1="348" x2="98" y2="388" stroke="#1a3a6b" stroke-width="1" stroke-dasharray="4,3"/>

  <!-- ══════════════════════════════════ -->
  <!-- ACTOR 2: GENIUS ACT / PPSI          -->
  <!-- ══════════════════════════════════ -->
  <rect x="228" y="388" width="72" height="64" rx="4" fill="#f0fdf4" stroke="#059669" stroke-width="2"/>
  <circle cx="264" cy="406" r="10" fill="#059669"/>
  <text x="264" y="411" font-size="12" fill="#fff" text-anchor="middle">⚖</text>
  <rect x="234" y="418" width="60" height="22" rx="3" fill="#059669"/>
  <text x="264" y="430" font-size="6.5" fill="#fff" text-anchor="middle" font-weight="700">GENIUS ACT</text>
  <text x="264" y="440" font-size="6" fill="#6b7280" text-anchor="middle">July 18, 2025</text>
  <text x="264" y="450" font-size="6" fill="#059669" text-anchor="middle" font-weight="700">US framework</text>

  <!-- Arrow Issuer → GENIUS -->
  <line x1="134" y1="420" x2="226" y2="420" stroke="#059669" stroke-width="2" marker-end="url(#arr-green)"/>
  <rect x="140" y="404" width="80" height="14" rx="2" fill="#f0fdf4" stroke="#059669" stroke-width="0.5"/>
  <text x="180" y="414" font-size="7" fill="#059669" text-anchor="middle" font-weight="700">PPSI authorization</text>

  <!-- GENIUS Act box -->
  <rect x="196" y="88" width="186" height="260" rx="3" fill="#f0fdf4" stroke="#059669" stroke-width="1"/>
  <rect x="196" y="88" width="186" height="18" rx="3" fill="#059669"/>
  <text x="289" y="100" font-size="8" fill="#fff" font-weight="700" text-anchor="middle">GENIUS Act — 5 AML Requirements</text>
  <text x="204" y="120" font-size="7.5" fill="#374151" font-weight="700">1. Risk-based AML/CFT program</text>
  <text x="204" y="132" font-size="7.5" fill="#374151">FinCEN AML priorities · risk</text>
  <text x="204" y="144" font-size="7.5" fill="#374151">assessment · updated when risks</text>
  <text x="204" y="156" font-size="7.5" fill="#374151">materially change</text>
  <text x="204" y="168" font-size="7.5" fill="#374151" font-weight="700">2. US-based compliance officer</text>
  <text x="204" y="180" font-size="7.5" fill="#374151">No financial crime convictions</text>
  <text x="204" y="192" font-size="7.5" fill="#374151">Senior mgmt certification required</text>
  <text x="204" y="204" font-size="7.5" fill="#374151" font-weight="700">3. Freeze/seizure — technical</text>
  <text x="204" y="216" font-size="7.5" fill="#374151">On-chain capability required</text>
  <text x="204" y="228" font-size="7.5" fill="#374151">Must be tested + documented</text>
  <text x="204" y="240" font-size="7.5" fill="#374151" font-weight="700">4. SAR filing obligation</text>
  <text x="204" y="252" font-size="7.5" fill="#374151">Challenge: bearer instrument —</text>
  <text x="204" y="264" font-size="7.5" fill="#374151">issuer can't track secondary use</text>
  <text x="204" y="276" font-size="7.5" fill="#374151" font-weight="700">5. Monthly attestation + audit</text>
  <text x="204" y="288" font-size="7.5" fill="#374151">Annual Big Four for large issuers</text>
  <text x="204" y="300" font-size="7.5" fill="#374151">1:1 reserve requirement</text>
  <text x="204" y="316" font-size="7.5" fill="#374151">FinCEN/OFAC NPRM: Apr 8 2026</text>
  <text x="204" y="328" font-size="7.5" fill="#374151">BSA · OFAC · GENIUS Act §4</text>
  <text x="204" y="340" font-size="7.5" fill="#374151">ACAMS 7.2 · FATF R.20</text>
  <line x1="264" y1="348" x2="264" y2="388" stroke="#059669" stroke-width="1" stroke-dasharray="4,3"/>

  <!-- ══════════════════════════════════ -->
  <!-- ACTOR 3: VASP / EXCHANGE           -->
  <!-- ══════════════════════════════════ -->
  <rect x="398" y="388" width="72" height="64" rx="4" fill="#fefce8" stroke="#ca8a04" stroke-width="1.5"/>
  <circle cx="434" cy="406" r="10" fill="#ca8a04"/>
  <text x="434" y="411" font-size="12" fill="#fff" text-anchor="middle">🏦</text>
  <rect x="404" y="418" width="60" height="22" rx="3" fill="#ca8a04"/>
  <text x="434" y="430" font-size="6.5" fill="#fff" text-anchor="middle" font-weight="700">VASP</text>
  <text x="434" y="440" font-size="6" fill="#6b7280" text-anchor="middle">Exchange / PSAV</text>
  <text x="434" y="450" font-size="6" fill="#ca8a04" text-anchor="middle" font-weight="700">Distribution chain</text>

  <!-- Arrow GENIUS → VASP -->
  <line x1="300" y1="420" x2="396" y2="420" stroke="#ca8a04" stroke-width="2" marker-end="url(#arr-orange)"/>
  <rect x="306" y="404" width="84" height="14" rx="2" fill="#fefce8" stroke="#ca8a04" stroke-width="0.5"/>
  <text x="348" y="414" font-size="7" fill="#ca8a04" text-anchor="middle" font-weight="700">secondary market</text>

  <!-- VASP / EDD box -->
  <rect x="374" y="88" width="192" height="260" rx="3" fill="#fefce8" stroke="#ca8a04" stroke-width="1"/>
  <rect x="374" y="88" width="192" height="18" rx="3" fill="#ca8a04"/>
  <text x="470" y="100" font-size="8" fill="#fff" font-weight="700" text-anchor="middle">VASP — EDD Obligations</text>
  <text x="382" y="120" font-size="7.5" fill="#374151" font-weight="700">Know Your Stablecoin (KYS):</text>
  <text x="382" y="132" font-size="7.5" fill="#374151">• Issuer jurisdiction + regulator</text>
  <text x="382" y="144" font-size="7.5" fill="#374151">• PPSI status (GENIUS Act)?</text>
  <text x="382" y="156" font-size="7.5" fill="#374151">• Reserve backing verified?</text>
  <text x="382" y="168" font-size="7.5" fill="#374151">• Freeze capability demonstrated?</text>
  <text x="382" y="180" font-size="7.5" fill="#374151">• Audit status (attestation/audit)?</text>
  <text x="382" y="196" font-size="7.5" fill="#374151" font-weight="700">Secondary market challenge:</text>
  <text x="382" y="208" font-size="7.5" fill="#374151">Stablecoin = bearer instrument</text>
  <text x="382" y="220" font-size="7.5" fill="#374151">Can change hands anonymously</text>
  <text x="382" y="232" font-size="7.5" fill="#374151">Issuer cannot track secondary use</text>
  <text x="382" y="244" font-size="7.5" fill="#374151">VASP must apply own EDD</text>
  <text x="382" y="260" font-size="7.5" fill="#374151" font-weight="700">Brazilian PSAV additional:</text>
  <text x="382" y="272" font-size="7.5" fill="#374151">Which BCB resolution applies?</text>
  <text x="382" y="284" font-size="7.5" fill="#374151">Res. 521 (VASP) or eFX?</text>
  <text x="382" y="296" font-size="7.5" fill="#374151">STR → COAF obligation</text>
  <text x="382" y="312" font-size="7.5" fill="#374151">ACAMS 4.1 · FATF R.16</text>
  <text x="382" y="324" font-size="7.5" fill="#374151">BCB Res. 521 · Lei 9.613 Art.11</text>
  <line x1="434" y1="348" x2="434" y2="388" stroke="#ca8a04" stroke-width="1" stroke-dasharray="4,3"/>

  <!-- ══════════════════════════════════ -->
  <!-- ACTOR 4: BRAZIL BCB FRAMEWORK      -->
  <!-- ══════════════════════════════════ -->
  <rect x="568" y="380" width="76" height="80" rx="4" fill="#f0fdf4" stroke="#009c3b" stroke-width="2"/>
  <circle cx="606" cy="400" r="14" fill="#009c3b"/>
  <text x="606" y="406" font-size="14" fill="#fff" text-anchor="middle">🇧🇷</text>
  <rect x="574" y="416" width="64" height="32" rx="3" fill="#009c3b"/>
  <text x="606" y="428" font-size="6.5" fill="#fff" text-anchor="middle" font-weight="700">BCB FRAMEWORK</text>
  <text x="606" y="438" font-size="6.5" fill="#fff" text-anchor="middle">Res. 519/521/561</text>
  <text x="606" y="448" font-size="6" fill="#d1fae5" text-anchor="middle">Feb 2026 live</text>
  <text x="606" y="456" font-size="5.5" fill="#d1fae5" text-anchor="middle">Oct 2026 561 effect</text>

  <!-- Arrow VASP → BCB -->
  <line x1="470" y1="420" x2="566" y2="420" stroke="#009c3b" stroke-width="2" marker-end="url(#arr-green)"/>
  <rect x="476" y="404" width="84" height="14" rx="2" fill="#f0fdf4" stroke="#009c3b" stroke-width="0.5"/>
  <text x="518" y="414" font-size="7" fill="#009c3b" text-anchor="middle" font-weight="700">BCB authorization</text>

  <!-- BCB Framework box -->
  <rect x="554" y="88" width="198" height="280" rx="3" fill="#f0fdf4" stroke="#009c3b" stroke-width="1"/>
  <rect x="554" y="88" width="198" height="18" rx="3" fill="#009c3b"/>
  <text x="653" y="100" font-size="8" fill="#fff" font-weight="700" text-anchor="middle">Brazil's Stablecoin Framework</text>
  <text x="562" y="120" font-size="7.5" fill="#374151" font-weight="700">Resolution 519 (Feb 2026):</text>
  <text x="562" y="132" font-size="7.5" fill="#374151">PSAV authorization required</text>
  <text x="562" y="144" font-size="7.5" fill="#374151">Full KYC + AML program</text>
  <text x="562" y="156" font-size="7.5" fill="#374151">STR reporting to COAF</text>
  <text x="562" y="168" font-size="7.5" fill="#374151" font-weight="700">Resolution 521 (Feb 2026):</text>
  <text x="562" y="180" font-size="7.5" fill="#374151">Stablecoins = FX operations</text>
  <text x="562" y="192" font-size="7.5" fill="#374151">Self-hosted wallet ID required</text>
  <text x="562" y="204" font-size="7.5" fill="#374151">PSAV channel for intl payments</text>
  <text x="562" y="216" font-size="7.5" fill="#374151">Travel Rule implementation</text>
  <text x="562" y="232" font-size="7.5" fill="#374151" font-weight="700">Resolution 561 (Oct 2026):</text>
  <text x="562" y="244" font-size="7.5" fill="#374151">eFX channel: stablecoin settlement</text>
  <text x="562" y="256" font-size="7.5" fill="#374151">banned for eFX providers</text>
  <text x="562" y="268" font-size="7.5" fill="#374151">Wise, Nomad, Braza Bank affected</text>
  <text x="562" y="280" font-size="7.5" fill="#374151">PSAV channel (Res.521): still open</text>
  <text x="562" y="296" font-size="7.5" fill="#059669" font-weight="700">✓ Strong foundation</text>
  <text x="562" y="308" font-size="7.5" fill="#374151">Among best in Latin America</text>
  <text x="562" y="324" font-size="7.5" fill="#374151">BCB Res. 519/521/561</text>
  <text x="562" y="336" font-size="7.5" fill="#374151">Lei 9.613 · FATF R.15/16</text>
  <line x1="606" y1="348" x2="606" y2="380" stroke="#009c3b" stroke-width="1" stroke-dasharray="4,3"/>

  <!-- ══════════════════════════════════ -->
  <!-- ACTOR 5: AML ANALYST               -->
  <!-- ══════════════════════════════════ -->
  <rect x="742" y="388" width="72" height="64" rx="4" fill="#f5f0ff" stroke="#7c3aed" stroke-width="1.5"/>
  <circle cx="778" cy="406" r="10" fill="#7c3aed"/>
  <text x="778" y="411" font-size="12" fill="#fff" text-anchor="middle">🔍</text>
  <rect x="748" y="418" width="60" height="22" rx="3" fill="#7c3aed"/>
  <text x="778" y="430" font-size="6.5" fill="#fff" text-anchor="middle" font-weight="700">AML ANALYST</text>
  <text x="778" y="440" font-size="6" fill="#6b7280" text-anchor="middle">Documentation</text>
  <text x="778" y="450" font-size="6" fill="#7c3aed" text-anchor="middle" font-weight="700">5-point review</text>

  <!-- Arrow BCB → Analyst -->
  <line x1="644" y1="420" x2="740" y2="420" stroke="#7c3aed" stroke-width="2" marker-end="url(#arr-purple)"/>
  <rect x="650" y="404" width="84" height="14" rx="2" fill="#f5f0ff" stroke="#7c3aed" stroke-width="0.5"/>
  <text x="692" y="414" font-size="7" fill="#7c3aed" text-anchor="middle" font-weight="700">compliance review</text>

  <!-- Analyst documentation box -->
  <rect x="730" y="88" width="200" height="260" rx="3" fill="#f5f0ff" stroke="#7c3aed" stroke-width="1"/>
  <rect x="730" y="88" width="200" height="18" rx="3" fill="#7c3aed"/>
  <text x="830" y="100" font-size="8" fill="#fff" font-weight="700" text-anchor="middle">5-Point Stablecoin Review</text>
  <text x="738" y="120" font-size="7.5" fill="#374151" font-weight="700">1. Issuer ID + regulatory status</text>
  <text x="738" y="132" font-size="7.5" fill="#374151">PPSI (GENIUS Act)? MiCA? Other?</text>
  <text x="738" y="144" font-size="7.5" fill="#374151">Document for each transaction</text>
  <text x="738" y="156" font-size="7.5" fill="#374151" font-weight="700">2. Reserve backing verification</text>
  <text x="738" y="168" font-size="7.5" fill="#374151">Latest attestation / audit date</text>
  <text x="738" y="180" font-size="7.5" fill="#374151">100% Treasury-backed vs. mixed</text>
  <text x="738" y="192" font-size="7.5" fill="#374151" font-weight="700">3. Freeze capability confirmation</text>
  <text x="738" y="204" font-size="7.5" fill="#374151">Has it been used on-chain?</text>
  <text x="738" y="216" font-size="7.5" fill="#374151">Circle 5h delay (AML-IR-2026-006)</text>
  <text x="738" y="228" font-size="7.5" fill="#374151">documented as baseline</text>
  <text x="738" y="240" font-size="7.5" fill="#374151" font-weight="700">4. Brazilian framework applicable</text>
  <text x="738" y="252" font-size="7.5" fill="#374151">Res. 521 (VASP) or eFX channel?</text>
  <text x="738" y="264" font-size="7.5" fill="#374151">Which reporting obligation applies?</text>
  <text x="738" y="276" font-size="7.5" fill="#374151" font-weight="700">5. Cross-border flag</text>
  <text x="738" y="288" font-size="7.5" fill="#374151">Travel Rule: what info transmitted?</text>
  <text x="738" y="300" font-size="7.5" fill="#374151">What gaps exist in chain?</text>
  <text x="738" y="316" font-size="7.5" fill="#374151">ACAMS 4.1 · FATF R.16</text>
  <text x="738" y="328" font-size="7.5" fill="#374151">BCB Res. 521 · GENIUS Act §4</text>
  <line x1="778" y1="348" x2="778" y2="388" stroke="#7c3aed" stroke-width="1" stroke-dasharray="4,3"/>

  <!-- ══════════════════════════════════ -->
  <!-- ACTOR 6: CONVERGENCE               -->
  <!-- ══════════════════════════════════ -->
  <rect x="916" y="388" width="72" height="64" rx="4" fill="#f0fdf4" stroke="#059669" stroke-width="2"/>
  <circle cx="952" cy="406" r="10" fill="#059669"/>
  <text x="952" y="411" font-size="12" fill="#fff" text-anchor="middle">🌐</text>
  <rect x="922" y="418" width="60" height="22" rx="3" fill="#059669"/>
  <text x="952" y="430" font-size="6.5" fill="#fff" text-anchor="middle" font-weight="700">CONVERGENCE</text>
  <text x="952" y="440" font-size="6" fill="#6b7280" text-anchor="middle">Global direction</text>
  <text x="952" y="450" font-size="6" fill="#059669" text-anchor="middle" font-weight="700">Same destination</text>

  <!-- Arrow Analyst → Convergence -->
  <line x1="814" y1="420" x2="914" y2="420" stroke="#059669" stroke-width="2" marker-end="url(#arr-green)"/>
  <rect x="820" y="404" width="88" height="14" rx="2" fill="#f0fdf4" stroke="#059669" stroke-width="0.5"/>
  <text x="864" y="414" font-size="7" fill="#059669" text-anchor="middle" font-weight="700">frameworks aligning</text>

  <!-- Convergence box -->
  <rect x="904" y="88" width="210" height="260" rx="3" fill="#f0fdf4" stroke="#059669" stroke-width="1"/>
  <rect x="904" y="88" width="210" height="18" rx="3" fill="#059669"/>
  <text x="1009" y="100" font-size="8" fill="#fff" font-weight="700" text-anchor="middle">Common Direction — Both Frameworks</text>
  <text x="912" y="120" font-size="7.5" fill="#374151" font-weight="700">GENIUS Act + BCB converging:</text>
  <text x="912" y="132" font-size="7.5" fill="#374151">✓ Stablecoins = financial institutions</text>
  <text x="912" y="144" font-size="7.5" fill="#374151">✓ 1:1 reserve requirements</text>
  <text x="912" y="156" font-size="7.5" fill="#374151">✓ AML programs mandatory</text>
  <text x="912" y="168" font-size="7.5" fill="#374151">✓ Freeze capability required</text>
  <text x="912" y="180" font-size="7.5" fill="#374151">✓ Audit transparency improving</text>
  <text x="912" y="196" font-size="7.5" fill="#374151" font-weight="700">Gaps being closed:</text>
  <text x="912" y="208" font-size="7.5" fill="#374151">• S.3907: Tether foreign gap</text>
  <text x="912" y="220" font-size="7.5" fill="#374151">• PL 5256/2025: P2P gap Brazil</text>
  <text x="912" y="232" font-size="7.5" fill="#374151">• MiCA (EU): parallel framework</text>
  <text x="912" y="248" font-size="7.5" fill="#374151" font-weight="700">Bradesco + Chainalysis (May 2026):</text>
  <text x="912" y="260" font-size="7.5" fill="#374151">Brazil institutional adoption +</text>
  <text x="912" y="272" font-size="7.5" fill="#374151">blockchain analytics = right direction</text>
  <text x="912" y="288" font-size="7.5" fill="#059669" font-weight="700">"Stablecoins becoming infrastructure</text>
  <text x="912" y="300" font-size="7.5" fill="#059669" font-weight="700">— AML must scale with them"</text>
  <text x="912" y="316" font-size="7.5" fill="#374151">ACAMS · FATF · BSA · BCB</text>
  <text x="912" y="328" font-size="7.5" fill="#374151">GENIUS Act · Lei 9.613</text>
  <line x1="952" y1="348" x2="952" y2="388" stroke="#059669" stroke-width="1" stroke-dasharray="4,3"/>

  <!-- ══════════════════════════════════ -->
  <!-- TYPOLOGIES + RECOMMENDATIONS        -->
  <!-- ══════════════════════════════════ -->
  <rect x="14" y="598" width="680" height="110" rx="3" fill="#fff8f8" stroke="#dc2626" stroke-width="1"/>
  <rect x="14" y="598" width="680" height="18" rx="3" fill="#dc2626"/>
  <text x="354" y="610" font-size="8" fill="#fff" font-weight="700" text-anchor="middle">Stablecoin AML Typologies — What I Monitor</text>
  <g font-size="7.5" fill="#374151">
    <text x="22" y="630">• Issuer arbitrage: using non-PPSI stablecoins to avoid GENIUS Act controls — ACAMS 4.1 · FATF R.15</text>
    <text x="22" y="643">• Secondary chain-breaking: passing stablecoin through multiple VASPs to dilute originator info — FATF R.16</text>
    <text x="22" y="656">• Cross-border structuring: splitting transfers below jurisdictional thresholds — ACAMS 3.1.4 · FATF R.20</text>
    <text x="22" y="669">• Freeze-resistant routing: using stablecoins whose issuers lack demonstrated freeze capability — OFAC</text>
    <text x="22" y="682">• Reserve opacity: using stablecoins with undisclosed reserve structures — GENIUS Act §4 · ACAMS 4.1</text>
    <text x="22" y="695" fill="#dc2626" font-weight="700">Frameworks: ACAMS 4.1/4.3.3 · FATF R.15/16/20 · BSA · OFAC · GENIUS Act · BCB Res. 521 · Lei 9.613</text>
  </g>

  <!-- Recommendations -->
  <rect x="706" y="598" width="718" height="110" rx="3" fill="#eff6ff" stroke="#1a3a6b" stroke-width="1"/>
  <rect x="706" y="598" width="718" height="18" rx="3" fill="#1a3a6b"/>
  <text x="1065" y="610" font-size="8" fill="#fff" font-weight="700" text-anchor="middle">3 Practitioner Takeaways</text>
  <g font-size="7.5" fill="#374151">
    <text x="714" y="630">1. Stablecoin issuer due diligence is now standard EDD — regulatory status of issuer (PPSI vs. non-PPSI) is material compliance factor</text>
    <text x="714" y="643">2. Cross-jurisdictional stablecoin flows require documented compliance chain — map each jurisdictional link explicitly in EDD narrative</text>
    <text x="714" y="656">3. Both GENIUS Act and BCB framework move in same direction — stablecoins as financial instruments with full AML obligations</text>
    <text x="714" y="672" fill="#059669" font-weight="700">Constructive direction: Bradesco + Chainalysis partnership shows Brazil institutional infrastructure is advancing alongside regulation.</text>
    <text x="714" y="685" fill="#374151">The gaps are transitional. The trajectory is right. The practitioner's job is to build compliance programs adaptable to this convergence.</text>
    <text x="714" y="698" fill="#374151" font-size="7">ACAMS CAMS 10th Ed. · FATF Recommendations · BSA/FinCEN · OFAC · GENIUS Act · BCB Res. 519/521/561 · Lei 9.613/1998</text>
  </g>

  <!-- TIMELINE -->
  <rect x="0" y="718" width="1440" height="72" fill="#f8fafc"/>
  <rect x="0" y="718" width="1440" height="1" fill="#e2e8f0"/>
  <text x="20" y="736" font-size="7.5" fill="#1a3a6b" font-weight="700">Regulatory Timeline:</text>
  <line x1="100" y1="758" x2="1400" y2="758" stroke="#1a3a6b" stroke-width="1.5"/>

  <g font-size="7" text-anchor="middle">
    <circle cx="150" cy="758" r="5" fill="#059669"/>
    <line x1="150" y1="753" x2="150" y2="738" stroke="#059669" stroke-width="1"/>
    <text x="150" y="735" fill="#059669">Jul 18, 2025</text>
    <text x="150" y="770" fill="#374151">GENIUS Act signed</text>
    <text x="150" y="779" fill="#374151">1st US stablecoin law</text>

    <circle cx="340" cy="758" r="5" fill="#009c3b"/>
    <line x1="340" y1="753" x2="340" y2="738" stroke="#009c3b" stroke-width="1"/>
    <text x="340" y="735" fill="#009c3b">Nov 2025</text>
    <text x="340" y="770" fill="#374151">BCB Res. 519/521</text>
    <text x="340" y="779" fill="#374151">Brazil framework</text>

    <circle cx="520" cy="758" r="5" fill="#009c3b"/>
    <line x1="520" y1="753" x2="520" y2="738" stroke="#009c3b" stroke-width="1"/>
    <text x="520" y="735" fill="#009c3b">Feb 2, 2026</text>
    <text x="520" y="770" fill="#374151">BCB framework live</text>
    <text x="520" y="779" fill="#374151">KYC/STR/COAF active</text>

    <circle cx="700" cy="758" r="5" fill="#059669"/>
    <line x1="700" y1="753" x2="700" y2="738" stroke="#059669" stroke-width="1"/>
    <text x="700" y="735" fill="#059669">Apr 8, 2026</text>
    <text x="700" y="770" fill="#374151">FinCEN/OFAC NPRM</text>
    <text x="700" y="779" fill="#374151">GENIUS Act AML rules</text>

    <circle cx="880" cy="758" r="5" fill="#009c3b"/>
    <line x1="880" y1="753" x2="880" y2="738" stroke="#009c3b" stroke-width="1"/>
    <text x="880" y="735" fill="#009c3b">Apr 30, 2026</text>
    <text x="880" y="770" fill="#374151">BCB Res. 561</text>
    <text x="880" y="779" fill="#374151">eFX stablecoin update</text>

    <circle cx="1060" cy="758" r="5" fill="#d97706"/>
    <line x1="1060" y1="753" x2="1060" y2="738" stroke="#d97706" stroke-width="1"/>
    <text x="1060" y="735" fill="#d97706">Jul 2026</text>
    <text x="1060" y="770" fill="#374151">GENIUS Act final</text>
    <text x="1060" y="779" fill="#374151">rules expected</text>

    <circle cx="1240" cy="758" r="5" fill="#dc2626"/>
    <line x1="1240" y1="753" x2="1240" y2="738" stroke="#dc2626" stroke-width="1"/>
    <text x="1240" y="735" fill="#dc2626">Oct 1, 2026</text>
    <text x="1240" y="770" fill="#374151">BCB Res. 561</text>
    <text x="1240" y="779" fill="#374151">takes effect</text>

    <circle cx="1380" cy="758" r="5" fill="#374151"/>
    <line x1="1380" y1="753" x2="1380" y2="738" stroke="#374151" stroke-width="1"/>
    <text x="1380" y="735" fill="#374151">2026-2027</text>
    <text x="1380" y="770" fill="#374151">Full GENIUS Act</text>
    <text x="1380" y="779" fill="#374151">enforcement begins</text>
  </g>

  <!-- Footer -->
  <rect x="0" y="800" width="1440" height="20" fill="#1a3a6b"/>
  <text x="16" y="813" font-size="7" fill="#93c5fd">Author: Phelipe Agnelli — AML &amp; Blockchain Forensics  ·  Sources: GENIUS Act · FinCEN/OFAC NPRM · BCB Res. 519/521/561 · TRM Labs · Mayer Brown · Morgan Lewis · Brookings  ·  AML-IR-2026-010</text>
  <text x="1424" y="813" font-size="7" fill="#93c5fd" text-anchor="end">github.com/PhelipeAgnelli/aml-blockchain-research</text>
</svg>
