<?xml version="1.0" encoding="UTF-8"?>
<svg xmlns="http://www.w3.org/2000/svg" viewBox="0 0 1440 860" font-family="'Courier New', 'IBM Plex Mono', monospace">
  <defs>
    <marker id="arr-red"    markerWidth="9" markerHeight="7" refX="8" refY="3.5" orient="auto"><polygon points="0 0,9 3.5,0 7" fill="#ef4444"/></marker>
    <marker id="arr-orange" markerWidth="9" markerHeight="7" refX="8" refY="3.5" orient="auto"><polygon points="0 0,9 3.5,0 7" fill="#f97316"/></marker>
    <marker id="arr-yellow" markerWidth="9" markerHeight="7" refX="8" refY="3.5" orient="auto"><polygon points="0 0,9 3.5,0 7" fill="#eab308"/></marker>
    <marker id="arr-green"  markerWidth="9" markerHeight="7" refX="8" refY="3.5" orient="auto"><polygon points="0 0,9 3.5,0 7" fill="#10b981"/></marker>
    <marker id="arr-gray"   markerWidth="9" markerHeight="7" refX="8" refY="3.5" orient="auto"><polygon points="0 0,9 3.5,0 7" fill="#4b5563"/></marker>
    <filter id="glow-red"><feDropShadow dx="0" dy="0" stdDeviation="4" flood-color="#ef4444" flood-opacity="0.4"/></filter>
    <filter id="glow-green"><feDropShadow dx="0" dy="0" stdDeviation="4" flood-color="#10b981" flood-opacity="0.4"/></filter>
    <filter id="shadow"><feDropShadow dx="2" dy="3" stdDeviation="4" flood-color="#000" flood-opacity="0.5"/></filter>
  </defs>

  <!-- BG -->
  <rect width="1440" height="860" fill="#080d14"/>

  <!-- Grid -->
  <g stroke="#1e3a5f" stroke-width="0.3" opacity="0.25">
    <line x1="0" y1="50" x2="1440" y2="50"/><line x1="0" y1="100" x2="1440" y2="100"/>
    <line x1="0" y1="150" x2="1440" y2="150"/><line x1="0" y1="200" x2="1440" y2="200"/>
    <line x1="0" y1="250" x2="1440" y2="250"/><line x1="0" y1="300" x2="1440" y2="300"/>
    <line x1="0" y1="350" x2="1440" y2="350"/><line x1="0" y1="400" x2="1440" y2="400"/>
    <line x1="0" y1="450" x2="1440" y2="450"/><line x1="0" y1="500" x2="1440" y2="500"/>
    <line x1="0" y1="550" x2="1440" y2="550"/><line x1="0" y1="600" x2="1440" y2="600"/>
    <line x1="0" y1="650" x2="1440" y2="650"/><line x1="0" y1="700" x2="1440" y2="700"/>
    <line x1="0" y1="750" x2="1440" y2="750"/><line x1="0" y1="800" x2="1440" y2="800"/>
    <line x1="50" y1="0" x2="50" y2="860"/><line x1="150" y1="0" x2="150" y2="860"/>
    <line x1="250" y1="0" x2="250" y2="860"/><line x1="350" y1="0" x2="350" y2="860"/>
    <line x1="450" y1="0" x2="450" y2="860"/><line x1="550" y1="0" x2="550" y2="860"/>
    <line x1="650" y1="0" x2="650" y2="860"/><line x1="750" y1="0" x2="750" y2="860"/>
    <line x1="850" y1="0" x2="850" y2="860"/><line x1="950" y1="0" x2="950" y2="860"/>
    <line x1="1050" y1="0" x2="1050" y2="860"/><line x1="1150" y1="0" x2="1150" y2="860"/>
    <line x1="1250" y1="0" x2="1250" y2="860"/><line x1="1350" y1="0" x2="1350" y2="860"/>
  </g>

  <!-- HEADER -->
  <rect x="0" y="0" width="1440" height="46" fill="#0f172a"/>
  <rect x="0" y="45" width="1440" height="1" fill="#1e3a5f"/>
  <rect x="12" y="10" width="70" height="22" rx="3" fill="none" stroke="#3b82f6" stroke-width="1"/>
  <text x="47" y="25" font-size="9" fill="#3b82f6" font-weight="700" text-anchor="middle" letter-spacing="1.5">AML-IR</text>
  <text x="94" y="20" font-size="12" fill="#e2e8f0" font-weight="700">ON-CHAIN FORENSIC FLOW — CLIFTON COLLINS BITCOIN SEIZURE</text>
  <text x="94" y="36" font-size="8.5" fill="#475569">Case AML-IR-2026-003  ·  24 March 2026  ·  500 BTC seized  ·  ~USD 35M  ·  Garda Síochána + CAB + Europol</text>
  <text x="1100" y="20" font-size="8" fill="#334155">ACAMS CAMS 10th Ed.  ·  FATF VA Guidance 2021</text>
  <text x="1100" y="34" font-size="8" fill="#334155">Basel AML Index 2024  ·  EU 6AMLD  ·  CJ(ML&amp;TF) Act 2010</text>

  <!-- LAYER DIVIDERS -->
  <line x1="228" y1="46" x2="228" y2="690" stroke="#1e3a5f" stroke-width="1" stroke-dasharray="5,4"/>
  <line x1="490" y1="46" x2="490" y2="690" stroke="#1e3a5f" stroke-width="1" stroke-dasharray="5,4"/>
  <line x1="820" y1="46" x2="820" y2="690" stroke="#1e3a5f" stroke-width="1" stroke-dasharray="5,4"/>

  <text x="118" y="60" font-size="7.5" fill="#334155" text-anchor="middle" font-weight="600" letter-spacing="1">LAYER 0 — ORIGIN</text>
  <text x="359" y="60" font-size="7.5" fill="#334155" text-anchor="middle" font-weight="600" letter-spacing="1">LAYER 1 — RELAY / HOP</text>
  <text x="655" y="60" font-size="7.5" fill="#334155" text-anchor="middle" font-weight="600" letter-spacing="1">LAYER 2 — FAN-OUT / STRUCTURING</text>
  <text x="1130" y="60" font-size="7.5" fill="#334155" text-anchor="middle" font-weight="600" letter-spacing="1">LAYER 3 — DESTINATIONS + SEIZURE</text>

  <!-- ═══════════════════════════════════════ -->
  <!-- NODE 0: ORIGIN WALLET                   -->
  <!-- ═══════════════════════════════════════ -->
  <g filter="url(#glow-red)">
    <rect x="14" y="75" width="208" height="168" rx="4" fill="#130a0a" stroke="#ef4444" stroke-width="2"/>
  </g>
  <rect x="14" y="75" width="208" height="24" rx="4" fill="#ef4444"/>
  <rect x="14" y="95" width="208" height="4" fill="#ef4444"/>
  <text x="118" y="91" font-size="8.5" fill="#fff" font-weight="700" text-anchor="middle" letter-spacing="0.8">⚠ CRITICAL — ORIGIN WALLET</text>
  <text x="118" y="114" font-size="10.5" fill="#fca5a5" font-weight="700" text-anchor="middle">CLIFTON COLLINS</text>
  <text x="118" y="128" font-size="7.5" fill="#9ca3af" text-anchor="middle">"The Honeymaker"  ·  Crumlin, Dublin</text>
  <line x1="22" y1="134" x2="214" y2="134" stroke="#1e1010" stroke-width="0.8"/>
  <text x="22" y="147" font-size="7.5" fill="#6b7280">Addr:</text>
  <text x="22" y="158" font-size="7" fill="#d1d5db">1GPWQv8tUJrYR778LKeu</text>
  <text x="22" y="169" font-size="7" fill="#d1d5db">GBM1JFNJWcrNe2</text>
  <line x1="22" y1="174" x2="214" y2="174" stroke="#1e1010" stroke-width="0.8"/>
  <text x="22" y="185" font-size="7.5" fill="#6b7280">Type:  <tspan fill="#e2e8f0">P2PKH (Legacy)</tspan></text>
  <text x="22" y="197" font-size="7.5" fill="#6b7280">Amount: <tspan fill="#fca5a5" font-weight="700">500 BTC</tspan></text>
  <text x="22" y="209" font-size="7.5" fill="#6b7280">Dormant: <tspan fill="#fca5a5" font-weight="700">~14 years</tspan></text>
  <text x="22" y="221" font-size="7.5" fill="#6b7280">Wallet: <tspan fill="#e2e8f0">1 of 12 (500 BTC each)</tspan></text>
  <text x="22" y="233" font-size="7.5" fill="#6b7280">Source: <tspan fill="#fca5a5">Drug proceeds (confirmed)</tspan></text>

  <!-- NODE: Dormant wallets (remaining 11) -->
  <rect x="14" y="262" width="208" height="110" rx="4" fill="#0c0c14" stroke="#374151" stroke-width="1.2" stroke-dasharray="5,3"/>
  <rect x="14" y="262" width="208" height="20" rx="4" fill="#1a1f2e"/>
  <text x="118" y="276" font-size="7.5" fill="#64748b" font-weight="600" text-anchor="middle" letter-spacing="0.8">⚠ LIVE RISK — 11 WALLETS LOCKED</text>
  <text x="118" y="296" font-size="9.5" fill="#94a3b8" font-weight="600" text-anchor="middle">~5,500 BTC DORMANT</text>
  <text x="118" y="310" font-size="7.5" fill="#64748b" text-anchor="middle">11 wallets × 500 BTC = 5,500 BTC</text>
  <text x="118" y="323" font-size="7.5" fill="#64748b" text-anchor="middle">~USD 390M at current price</text>
  <text x="118" y="338" font-size="7" fill="#4b5563" text-anchor="middle">Europol applying same decryption</text>
  <text x="118" y="350" font-size="7" fill="#4b5563" text-anchor="middle">technique to remaining wallets</text>
  <text x="118" y="363" font-size="7" fill="#4b5563" text-anchor="middle">STR prep required for all VASPs NOW</text>

  <!-- ═══════════════════════════════════════ -->
  <!-- NODE 1: RELAY                           -->
  <!-- ═══════════════════════════════════════ -->
  <g filter="url(#shadow)">
    <rect x="236" y="75" width="246" height="188" rx="4" fill="#130d00" stroke="#f97316" stroke-width="2"/>
  </g>
  <rect x="236" y="75" width="246" height="24" rx="4" fill="#f97316"/>
  <rect x="236" y="95" width="246" height="4" fill="#f97316"/>
  <text x="359" y="91" font-size="8.5" fill="#fff" font-weight="700" text-anchor="middle" letter-spacing="0.8">HIGH — RELAY NODE (P2SH)</text>
  <text x="359" y="114" font-size="8.5" fill="#fdba74" font-weight="700" text-anchor="middle">3ASF4VfsBHXZS9HMqwBY</text>
  <text x="359" y="126" font-size="8.5" fill="#fdba74" font-weight="700" text-anchor="middle">he1W96P35KiaKC</text>
  <line x1="244" y1="132" x2="474" y2="132" stroke="#1a0e00" stroke-width="0.8"/>
  <text x="244" y="145" font-size="7.5" fill="#6b7280">Type:       <tspan fill="#e2e8f0">P2SH (Pay-to-Script-Hash)</tspan></text>
  <text x="244" y="158" font-size="7.5" fill="#6b7280">Pre-staged: <tspan fill="#fdba74" font-weight="700">Dec 2022 — 3.5 years early</tspan></text>
  <text x="244" y="171" font-size="7.5" fill="#6b7280">Received:   <tspan fill="#e2e8f0">499.9943000 BTC (TX1)</tspan></text>
  <text x="244" y="184" font-size="7.5" fill="#6b7280">TX1 Block:  <tspan fill="#e2e8f0">942,003 · 2026-03-24</tspan></text>
  <text x="244" y="197" font-size="7.5" fill="#6b7280">TX1 Time:   <tspan fill="#e2e8f0">12:51:17 UTC</tspan></text>
  <text x="244" y="210" font-size="7.5" fill="#6b7280">TX1 Fee:    <tspan fill="#ef4444" font-weight="700">301.59 sat/vB  (~100× market)</tspan></text>
  <text x="244" y="223" font-size="7.5" fill="#6b7280">RBF:        <tspan fill="#fca5a5">Enabled</tspan></text>
  <text x="244" y="236" font-size="7.5" fill="#6b7280">Dwell:      <tspan fill="#fdba74" font-weight="700">34 minutes (TX2: 13:25:28 UTC)</tspan></text>
  <text x="244" y="249" font-size="7.5" fill="#6b7280">TX2 fee:    <tspan fill="#e2e8f0">3.447 sats — USD 2.45 (normal)</tspan></text>
  <text x="244" y="257" font-size="7.5" fill="#6b7280">Outputs:    <tspan fill="#e2e8f0">32 addresses (fan-out)</tspan></text>

  <!-- TX1 label on arrow -->
  <text x="192" y="144" font-size="8" fill="#ef4444" font-weight="700" text-anchor="middle">TX1</text>
  <text x="192" y="155" font-size="7" fill="#ef4444" text-anchor="middle">9f94847b...</text>
  <text x="192" y="165" font-size="7" fill="#ef4444" text-anchor="middle">301.59 sat/vB ⚠</text>

  <!-- Arrow Origin → Relay -->
  <line x1="222" y1="164" x2="234" y2="164" stroke="#ef4444" stroke-width="2.5" marker-end="url(#arr-red)"/>

  <!-- TX2 label -->
  <text x="655" y="58" font-size="7.5" fill="#f97316" text-anchor="middle">TX2 · 7ff442ff... · Block 942,005 · 13:25:28 UTC · Fee 3.15 sat/vB · Confirmed in 26 min</text>

  <!-- ═══════════════════════════════════════ -->
  <!-- FAN-OUT NODES — 32 outputs               -->
  <!-- ═══════════════════════════════════════ -->

  <!-- Header box for fan-out area -->
  <rect x="498" y="66" width="316" height="20" rx="3" fill="#1a1200" stroke="#eab308" stroke-width="1"/>
  <text x="656" y="80" font-size="8" fill="#fbbf24" font-weight="700" text-anchor="middle" letter-spacing="0.8">⚠ STRUCTURING — 30 × 10.000 BTC + 1 Coinbase + 1 Residual = 32 OUTPUTS</text>

  <!-- OUTPUT 1: Coinbase -->
  <g filter="url(#glow-green)">
    <rect x="498" y="92" width="316" height="80" rx="4" fill="#061812" stroke="#10b981" stroke-width="2"/>
  </g>
  <rect x="498" y="92" width="316" height="22" rx="4" fill="#10b981"/>
  <rect x="498" y="110" width="316" height="4" fill="#10b981"/>
  <text x="656" y="108" font-size="8.5" fill="#000" font-weight="700" text-anchor="middle" letter-spacing="0.8">OUTPUT #1 — COINBASE CUSTODY · SEIZED ✓</text>
  <text x="506" y="126" font-size="7.5" fill="#6ee7b7">bc1qdj58duywm3ng0twrxk5kykup9q6jmmj72n60ms</text>
  <text x="506" y="139" font-size="7.5" fill="#6b7280">Type: P2WPKH   Amount: <tspan fill="#34d399" font-weight="700">191.08633315 BTC (~USD 25.6M)</tspan></text>
  <text x="506" y="152" font-size="7.5" fill="#6b7280">VASP: Coinbase Custody (US) · BSA/FinCEN · SAR mandatory</text>
  <text x="506" y="164" font-size="7.5" fill="#10b981" font-weight="700">SEIZED — Garda/CAB/Europol · 24 Mar 2026 · same day</text>

  <!-- OUTPUTS 2-31: Structured 30x10 BTC -->
  <g filter="url(#shadow)">
    <rect x="498" y="180" width="316" height="342" rx="4" fill="#111000" stroke="#eab308" stroke-width="2"/>
  </g>
  <rect x="498" y="180" width="316" height="22" rx="4" fill="#eab308"/>
  <rect x="498" y="198" width="316" height="4" fill="#eab308"/>
  <text x="656" y="196" font-size="8.5" fill="#000" font-weight="700" text-anchor="middle" letter-spacing="0.8">OUTPUTS #2–31 — STRUCTURED DISPERSAL</text>

  <!-- Structuring explanation -->
  <text x="506" y="216" font-size="7.5" fill="#fbbf24" font-weight="600">30 outputs × 10.00000000 BTC · ZERO satoshi variation</text>
  <text x="506" y="228" font-size="7" fill="#6b7280">Total: 300.000 BTC (~USD 40.2M) · Red flag: ACAMS 3.1.4 · FATF R.20</text>
  <line x1="506" y1="234" x2="806" y2="234" stroke="#2a2000" stroke-width="1"/>

  <!-- Individual rows — verified from mempool screenshot -->
  <g font-size="7" fill="#4b5563">
    <text x="508" y="247">#02</text><text x="528" y="247" fill="#9ca3af">bc1q5qdz...  P2WPKH</text><text x="718" y="247" fill="#eab308" font-weight="700">10.00000000 BTC</text><text x="790" y="247">UNKNOWN</text>
    <line x1="506" y1="251" x2="806" y2="251" stroke="#1a1600" stroke-width="0.5"/>
    <text x="508" y="263">#03</text><text x="528" y="263" fill="#9ca3af">bc1q0atx...  P2WPKH</text><text x="718" y="263" fill="#eab308" font-weight="700">10.00000000 BTC</text><text x="790" y="263">UNKNOWN</text>
    <line x1="506" y1="267" x2="806" y2="267" stroke="#1a1600" stroke-width="0.5"/>
    <text x="508" y="279">#04</text><text x="528" y="279" fill="#9ca3af">bc1qk209...  P2WPKH</text><text x="718" y="279" fill="#eab308" font-weight="700">10.00000000 BTC</text><text x="790" y="279">UNKNOWN</text>
    <line x1="506" y1="283" x2="806" y2="283" stroke="#1a1600" stroke-width="0.5"/>
    <text x="508" y="295">#05</text><text x="528" y="295" fill="#9ca3af">bc1q4n6v...  P2WPKH</text><text x="718" y="295" fill="#eab308" font-weight="700">10.00000000 BTC</text><text x="790" y="295">UNKNOWN</text>
    <line x1="506" y1="299" x2="806" y2="299" stroke="#1a1600" stroke-width="0.5"/>
    <text x="508" y="311">#06</text><text x="528" y="311" fill="#9ca3af">bc1qp4hx...  P2WPKH</text><text x="718" y="311" fill="#eab308" font-weight="700">10.00000000 BTC</text><text x="790" y="311">UNKNOWN</text>
    <line x1="506" y1="315" x2="806" y2="315" stroke="#1a1600" stroke-width="0.5"/>
    <text x="508" y="327">#07</text><text x="528" y="327" fill="#9ca3af">bc1qm2wz...  P2WPKH</text><text x="718" y="327" fill="#eab308" font-weight="700">10.00000000 BTC</text><text x="790" y="327">UNKNOWN</text>
    <line x1="506" y1="331" x2="806" y2="331" stroke="#1a1600" stroke-width="0.5"/>
    <text x="508" y="343">#08</text><text x="528" y="343" fill="#9ca3af">bc1qv9np...  P2WPKH</text><text x="718" y="343" fill="#eab308" font-weight="700">10.00000000 BTC</text><text x="790" y="343">UNKNOWN</text>
    <line x1="506" y1="347" x2="806" y2="347" stroke="#1a1600" stroke-width="0.5"/>
    <text x="508" y="359">#09</text><text x="528" y="359" fill="#9ca3af">bc1qj3tc...  P2WPKH</text><text x="718" y="359" fill="#eab308" font-weight="700">10.00000000 BTC</text><text x="790" y="359">UNKNOWN</text>
    <line x1="506" y1="363" x2="806" y2="363" stroke="#1a1600" stroke-width="0.5"/>
    <text x="508" y="375">#10</text><text x="528" y="375" fill="#9ca3af">bc1qs8qf...  P2WPKH</text><text x="718" y="375" fill="#eab308" font-weight="700">10.00000000 BTC</text><text x="790" y="375">UNKNOWN</text>
    <line x1="506" y1="379" x2="806" y2="379" stroke="#1a1600" stroke-width="0.5"/>
    <text x="656" y="394" fill="#374151" text-anchor="middle">· · · #11 through #31 · same pattern · 10.00000000 BTC each · · ·</text>
    <line x1="506" y1="400" x2="806" y2="400" stroke="#2a2000" stroke-width="1"/>
    <text x="508" y="413" fill="#fbbf24" font-weight="700" font-size="8">TOTAL STRUCTURED: 300.00000000 BTC</text>
    <text x="508" y="426" fill="#6b7280" font-size="7">Each parcel = ~USD 1.34M · triggers Travel Rule in all jurisdictions</text>
    <text x="508" y="438" fill="#6b7280" font-size="7">Any VASP receiving: EDD + STR mandatory · tipping-off prohibition applies</text>
    <line x1="506" y1="444" x2="806" y2="444" stroke="#2a2000" stroke-width="1"/>
    <text x="508" y="456" fill="#6b7280" font-size="7">Why 10 BTC? Round number = easy to split across multiple exchanges.</text>
    <text x="508" y="468" fill="#6b7280" font-size="7">Creates 30 independent investigation trails requiring simultaneous VASP coordination.</text>
    <text x="508" y="480" fill="#6b7280" font-size="7">All addresses P2WPKH — type change from origin (P2PKH) and relay (P2SH).</text>
    <text x="508" y="492" fill="#6b7280" font-size="7">Defeats naive address-type clustering · FATF VA Guidance §5.2.</text>
    <text x="508" y="510" fill="#ef4444" font-weight="700" font-size="7.5">⚠ ACAMS 3.1.4 · FATF R.20 STR Trigger · EU 6AMLD Art. 2</text>
  </g>

  <!-- OUTPUT 32: Residual -->
  <g filter="url(#shadow)">
    <rect x="498" y="530" width="316" height="72" rx="4" fill="#0e1118" stroke="#374151" stroke-width="1.5"/>
  </g>
  <rect x="498" y="530" width="316" height="20" rx="4" fill="#1e2535"/>
  <text x="656" y="544" font-size="8" fill="#64748b" font-weight="600" text-anchor="middle" letter-spacing="0.8">OUTPUT #32 — RESIDUAL (UNKNOWN)</text>
  <text x="506" y="562" font-size="7.5" fill="#9ca3af">bc1qnaumpufq8wg3mpgecm4vulcvwnjmfcesl9g8tj</text>
  <text x="506" y="574" font-size="7.5" fill="#6b7280">Type: P2WPKH   Amount: <tspan fill="#94a3b8" font-weight="600">~8.906 BTC</tspan>  (499.9943 - 300 - 191.086 - fee)</text>
  <text x="506" y="586" font-size="7.5" fill="#6b7280">TX3 post-seizure movement: <tspan fill="#94a3b8">2026-03-26 · 12:34:52 UTC</tspan></text>
  <text x="506" y="597" font-size="7" fill="#4b5563">Destination unknown · EDD required on receipt · ACAMS 3.1.2</text>

  <!-- ═══════════════════════════════════════ -->
  <!-- RIGHT PANEL — Seizure + Typologies      -->
  <!-- ═══════════════════════════════════════ -->

  <!-- Seizure box -->
  <g filter="url(#glow-green)">
    <rect x="828" y="66" width="600" height="120" rx="4" fill="#061812" stroke="#10b981" stroke-width="2"/>
  </g>
  <rect x="828" y="66" width="600" height="24" rx="4" fill="#10b981"/>
  <rect x="828" y="86" width="600" height="4" fill="#10b981"/>
  <text x="1128" y="83" font-size="9" fill="#000" font-weight="700" text-anchor="middle" letter-spacing="1">SEIZURE CONFIRMED — JOINT LAW ENFORCEMENT OPERATION</text>
  <text x="838" y="104" font-size="8.5" fill="#6ee7b7" font-weight="700">Garda Síochána  +  Criminal Assets Bureau (CAB)  +  Europol</text>
  <text x="838" y="118" font-size="7.5" fill="#6b7280">Date: <tspan fill="#e2e8f0">24 March 2026 — same day as TX1 + TX2 · real-time blockchain monitoring</tspan></text>
  <text x="838" y="131" font-size="7.5" fill="#6b7280">Seized: <tspan fill="#34d399" font-weight="700">~500 BTC / ~€30M (official Garda press release)</tspan></text>
  <text x="838" y="144" font-size="7.5" fill="#6b7280">Legal: <tspan fill="#e2e8f0">Proceeds of Crime Act 1996  ·  CJ(ML&amp;TF) Act 2010  ·  Europol coordination</tspan></text>
  <text x="838" y="157" font-size="7.5" fill="#6b7280">Chokepoint: <tspan fill="#34d399">Coinbase Custody KYC controls enabled real-time legal hold</tspan></text>
  <text x="838" y="170" font-size="7.5" fill="#6b7280">Key recovery: <tspan fill="#e2e8f0">Europol "highly complex technical expertise and decryption resources" (official statement)</tspan></text>
  <text x="838" y="181" font-size="7.5" fill="#6b7280">Remaining: <tspan fill="#fca5a5" font-weight="600">11 wallets × 500 BTC · Europol optimistic same technique applies</tspan></text>

  <!-- AML Typologies -->
  <rect x="828" y="196" width="600" height="24" rx="4" fill="#1e3a5f"/>
  <text x="1128" y="212" font-size="8.5" fill="#93c5fd" font-weight="700" text-anchor="middle" letter-spacing="1">AML TYPOLOGIES DETECTED — 8 PATTERNS  ·  ACAMS CAMS 10th Ed.</text>

  <g font-size="7.5">
    <!-- T1 -->
    <rect x="828" y="222" width="600" height="30" rx="2" fill="#130a0a"/>
    <text x="836" y="237" fill="#ef4444" font-weight="700">1. PREDICATE OFFENCE</text>
    <text x="836" y="248" fill="#6b7280">Cannabis trafficking · conviction 2017 · all 6,000 BTC legally tainted · no statute of limitations</text>
    <text x="1330" y="237" fill="#ef4444" font-size="7" text-anchor="end">CRITICAL</text>

    <!-- T2 -->
    <rect x="828" y="254" width="600" height="30" rx="2" fill="#111000"/>
    <text x="836" y="269" fill="#eab308" font-weight="700">2. STRUCTURING / SMURFING</text>
    <text x="836" y="280" fill="#6b7280">30 × 10.00000000 BTC · zero satoshi variation confirmed on mempool.space · ACAMS 3.1.4 · FATF R.20</text>
    <text x="1330" y="269" fill="#f97316" font-size="7" text-anchor="end">HIGH</text>

    <!-- T3 -->
    <rect x="828" y="286" width="600" height="30" rx="2" fill="#130d00"/>
    <text x="836" y="301" fill="#f97316" font-weight="700">3. LAYERING VIA RELAY HOP</text>
    <text x="836" y="312" fill="#6b7280">P2SH relay staged Dec 2022 (3.5y before use) · 34-min dwell · ACAMS 5.1.1 · FATF R.15 §5</text>
    <text x="1330" y="301" fill="#f97316" font-size="7" text-anchor="end">HIGH</text>

    <!-- T4 -->
    <rect x="828" y="318" width="600" height="30" rx="2" fill="#130d00"/>
    <text x="836" y="333" fill="#f97316" font-weight="700">4. FAN-OUT DISPERSAL</text>
    <text x="836" y="344" fill="#6b7280">32 outputs in single TX · 32 independent trails · requires simultaneous VASP coordination · ACAMS 4.3.3</text>
    <text x="1330" y="333" fill="#f97316" font-size="7" text-anchor="end">HIGH</text>

    <!-- T5 -->
    <rect x="828" y="350" width="600" height="30" rx="2" fill="#130a0a"/>
    <text x="836" y="365" fill="#ef4444" font-weight="700">5. DORMANCY OPSEC</text>
    <text x="836" y="376" fill="#6b7280">~14 years inactivity as concealment · ACAMS 3.1.2 · automatic STR trigger on any movement · FATF §3.1</text>
    <text x="1330" y="365" fill="#f97316" font-size="7" text-anchor="end">HIGH</text>

    <!-- T6 -->
    <rect x="828" y="382" width="600" height="30" rx="2" fill="#0c0800"/>
    <text x="836" y="397" fill="#f59e0b" font-weight="700">6. FEE RATE ANOMALY</text>
    <text x="836" y="408" fill="#6b7280">TX1: 301.59 sat/vB vs ~3 sat/vB market · ~100× overpay · RBF enabled · ACAMS 4.3.1 · urgency signal</text>
    <text x="1330" y="397" fill="#eab308" font-size="7" text-anchor="end">MEDIUM</text>

    <!-- T7 -->
    <rect x="828" y="414" width="600" height="30" rx="2" fill="#130a0a"/>
    <text x="836" y="429" fill="#ef4444" font-weight="700">7. PHYSICAL COLD WALLET OPSEC</text>
    <text x="836" y="440" fill="#6b7280">Private keys on paper in fishing rod case · defeated all digital forensics for 14 years · FATF VA §2.3</text>
    <text x="1330" y="429" fill="#f97316" font-size="7" text-anchor="end">HIGH</text>

    <!-- T8 -->
    <rect x="828" y="446" width="600" height="30" rx="2" fill="#130d00"/>
    <text x="836" y="461" fill="#f97316" font-weight="700">8. ADDRESS TYPE ESCALATION</text>
    <text x="836" y="472" fill="#6b7280">P2PKH → P2SH → P2WPKH at each hop · defeats automated address-type clustering · FATF VA §5.2</text>
    <text x="1330" y="461" fill="#eab308" font-size="7" text-anchor="end">MEDIUM</text>
  </g>

  <!-- VASP Action Required -->
  <rect x="828" y="482" width="600" height="26" rx="4" fill="#1a0808" stroke="#ef4444" stroke-width="1" stroke-dasharray="4,3"/>
  <text x="1128" y="492" font-size="7.5" fill="#fca5a5" font-weight="700" text-anchor="middle">⚠ VASP OBLIGATIONS: EDD + STR/SAR + Travel Rule on ALL 30 structured outputs · Tipping-off prohibition (EU 6AMLD Art.39) · Freeze + notify FIU</text>
  <text x="1128" y="504" font-size="7" fill="#64748b" text-anchor="middle">All 10 BTC parcels (~USD 1.34M each) exceed Travel Rule threshold in every jurisdiction · Originator info unavailable = automatic STR trigger</text>

  <!-- ARROWS: Relay → Outputs -->
  <!-- Relay → Coinbase -->
  <path d="M 482 132 C 492 132 492 132 496 132" stroke="#10b981" stroke-width="2.5" fill="none" marker-end="url(#arr-green)"/>

  <!-- Relay → Structured outputs -->
  <path d="M 482 175 C 492 175 492 350 496 350" stroke="#eab308" stroke-width="2" fill="none" marker-end="url(#arr-yellow)"/>

  <!-- Relay → Residual -->
  <path d="M 482 200 C 492 200 492 566 496 566" stroke="#4b5563" stroke-width="1.5" fill="none" marker-end="url(#arr-gray)"/>

  <!-- Fan-out → Law enforcement -->
  <path d="M 814 132 L 826 132" stroke="#10b981" stroke-width="2" fill="none" marker-end="url(#arr-green)"/>
  <text x="820" y="126" font-size="7" fill="#10b981" text-anchor="middle" font-weight="700">SEIZED</text>

  <!-- ═══════════════════════════════════════ -->
  <!-- TIMELINE                                -->
  <!-- ═══════════════════════════════════════ -->
  <rect x="0" y="698" width="1440" height="160" fill="#0d1320"/>
  <rect x="0" y="698" width="1440" height="1" fill="#1e3a5f"/>
  <text x="20" y="716" font-size="8" fill="#3b82f6" font-weight="700" letter-spacing="1.5">CASE TIMELINE</text>

  <!-- Timeline spine -->
  <line x1="60" y1="755" x2="1400" y2="755" stroke="#1e3a5f" stroke-width="1.5"/>

  <!-- Events -->
  <g text-anchor="middle" font-size="7.5">
    <!-- 2011 -->
    <circle cx="90" cy="755" r="5" fill="#1f2937" stroke="#374151" stroke-width="1.5"/>
    <line x1="90" y1="750" x2="90" y2="733" stroke="#374151" stroke-width="1"/>
    <text x="90" y="729" fill="#6b7280">2011–12</text>
    <text x="90" y="769" fill="#64748b">6,000 BTC</text>
    <text x="90" y="780" fill="#4b5563">drug proceeds</text>
    <text x="90" y="791" fill="#4b5563">12 wallets</text>

    <!-- 2016 fee anomaly -->
    <circle cx="270" cy="755" r="5" fill="#1a0c00" stroke="#f59e0b" stroke-width="1.5"/>
    <line x1="270" y1="750" x2="270" y2="733" stroke="#f59e0b" stroke-width="1"/>
    <text x="270" y="729" fill="#f59e0b">2016</text>
    <text x="270" y="769" fill="#f59e0b">Fee anomaly</text>
    <text x="270" y="780" fill="#64748b">1,144 sat/vB</text>
    <text x="270" y="791" fill="#4b5563">ACAMS 4.3.1</text>

    <!-- 2017 arrest -->
    <circle cx="430" cy="755" r="5" fill="#1f2937" stroke="#6b7280" stroke-width="1.5"/>
    <line x1="430" y1="750" x2="430" y2="733" stroke="#6b7280" stroke-width="1"/>
    <text x="430" y="729" fill="#6b7280">2017</text>
    <text x="430" y="769" fill="#9ca3af">Collins</text>
    <text x="430" y="780" fill="#64748b">arrested</text>
    <text x="430" y="791" fill="#4b5563">keys "lost"</text>

    <!-- 2020 court -->
    <circle cx="590" cy="755" r="5" fill="#1f2937" stroke="#6b7280" stroke-width="1.5"/>
    <line x1="590" y1="750" x2="590" y2="733" stroke="#6b7280" stroke-width="1"/>
    <text x="590" y="729" fill="#6b7280">2020</text>
    <text x="590" y="769" fill="#9ca3af">High Court</text>
    <text x="590" y="780" fill="#64748b">confiscation</text>
    <text x="590" y="791" fill="#4b5563">order (unenf.)</text>

    <!-- Dec 2022 relay -->
    <circle cx="790" cy="755" r="6" fill="#130d00" stroke="#f97316" stroke-width="2"/>
    <line x1="790" y1="749" x2="790" y2="730" stroke="#f97316" stroke-width="1.5"/>
    <text x="790" y="726" fill="#f97316" font-weight="700">Dec 2022</text>
    <text x="790" y="769" fill="#fdba74">Relay staged</text>
    <text x="790" y="780" fill="#64748b">3.5 yrs early</text>
    <text x="790" y="791" fill="#4b5563">premeditated</text>

    <!-- TX1 -->
    <circle cx="1020" cy="755" r="7" fill="#130a0a" stroke="#ef4444" stroke-width="2.5"/>
    <line x1="1020" y1="748" x2="1020" y2="726" stroke="#ef4444" stroke-width="1.5"/>
    <text x="1020" y="722" fill="#ef4444" font-weight="700">24 Mar 12:51</text>
    <text x="1020" y="769" fill="#fca5a5" font-weight="700">TX1 Sweep</text>
    <text x="1020" y="780" fill="#ef4444">301.59 sat/vB ⚠</text>
    <text x="1020" y="791" fill="#4b5563">Block 942,003</text>

    <!-- TX2 -->
    <circle cx="1160" cy="755" r="7" fill="#111000" stroke="#eab308" stroke-width="2.5"/>
    <line x1="1160" y1="748" x2="1160" y2="726" stroke="#eab308" stroke-width="1.5"/>
    <text x="1160" y="722" fill="#eab308" font-weight="700">24 Mar 13:25</text>
    <text x="1160" y="769" fill="#fbbf24" font-weight="700">TX2 Fan-out</text>
    <text x="1160" y="780" fill="#eab308">32 outputs</text>
    <text x="1160" y="791" fill="#4b5563">Block 942,005</text>

    <!-- Seizure -->
    <circle cx="1290" cy="755" r="7" fill="#061812" stroke="#10b981" stroke-width="2.5"/>
    <line x1="1290" y1="748" x2="1290" y2="726" stroke="#10b981" stroke-width="1.5"/>
    <text x="1290" y="722" fill="#10b981" font-weight="700">24 Mar 2026</text>
    <text x="1290" y="769" fill="#34d399" font-weight="700">SEIZED ✓</text>
    <text x="1290" y="780" fill="#6ee7b7">~€30M / 500 BTC</text>
    <text x="1290" y="791" fill="#4b5563">Garda/CAB/Europol</text>

    <!-- TX3 -->
    <circle cx="1390" cy="755" r="5" fill="#1f2937" stroke="#374151" stroke-width="1.5"/>
    <line x1="1390" y1="750" x2="1390" y2="733" stroke="#374151" stroke-width="1"/>
    <text x="1390" y="729" fill="#6b7280">26 Mar</text>
    <text x="1390" y="769" fill="#64748b">TX3</text>
    <text x="1390" y="780" fill="#4b5563">Residual</text>
    <text x="1390" y="791" fill="#4b5563">~8.9 BTC</text>
  </g>

  <!-- 34-min bracket -->
  <line x1="1020" y1="808" x2="1160" y2="808" stroke="#374151" stroke-width="1"/>
  <line x1="1020" y1="803" x2="1020" y2="813" stroke="#374151" stroke-width="1"/>
  <line x1="1160" y1="803" x2="1160" y2="813" stroke="#374151" stroke-width="1"/>
  <text x="1090" y="822" font-size="7.5" fill="#6b7280" text-anchor="middle">34-minute execution window</text>

  <!-- FOOTER -->
  <rect x="0" y="838" width="1440" height="22" fill="#0a0f1a"/>
  <rect x="0" y="838" width="1440" height="1" fill="#1e3a5f"/>
  <text x="16" y="853" font-size="7" fill="#334155">Author: Phelipe Agnelli — AML &amp; Blockchain Forensics  ·  Data sources: mempool.space (verified) · Arkham Intelligence · Garda press release · Irish Times · BeInCrypto · The Crypto Basic  ·  Frameworks: ACAMS CAMS 10th Ed. · FATF VA Guidance 2021 · Basel AML Index 2024 · EU 6AMLD · CJ(ML&amp;TF) Act 2010</text>
  <text x="1424" y="853" font-size="7" fill="#334155" text-anchor="end">github.com/phelipeagnelli  ·  AML-IR-2026-003</text>
</svg>
