<?xml version="1.0" encoding="UTF-8"?>
<svg xmlns="http://www.w3.org/2000/svg" viewBox="0 0 1400 820" font-family="Arial, Helvetica, sans-serif">

  <!-- Background -->
  <rect width="1400" height="820" fill="#ffffff"/>

  <!-- Header bar -->
  <rect x="0" y="0" width="1400" height="52" fill="#1a3a6b"/>
  <text x="20" y="20" font-size="11" fill="#ffffff" font-weight="700" letter-spacing="1">CASE STUDY — MONEY LAUNDERING VIA DECENTRALIZED MIXER</text>
  <text x="20" y="38" font-size="9.5" fill="#93c5fd">Case AML-IR-2026-004  ·  Tornado Cash  ·  Lazarus Group (DPRK)  ·  USD 7.6B processed  ·  Verdict: August 2025</text>
  <text x="1380" y="30" font-size="8" fill="#93c5fd" text-anchor="end">ACAMS · FATF · IEEPA · BSA/FinCEN</text>

  <!-- Section title -->
  <text x="20" y="74" font-size="11" fill="#1a3a6b" font-weight="700">Case Flow Diagram</text>
  <line x1="20" y1="78" x2="1380" y2="78" stroke="#1a3a6b" stroke-width="1.5"/>

  <!-- ═══════════════════════════════════════════════════ -->
  <!-- MAIN TIMELINE                                       -->
  <!-- ═══════════════════════════════════════════════════ -->
  <line x1="60" y1="420" x2="1340" y2="420" stroke="#1a3a6b" stroke-width="2"/>
  <text x="20" y="416" font-size="8" fill="#1a3a6b" font-weight="700">Timeline</text>

  <!-- ARROWS MARKERS -->
  <defs>
    <marker id="arr-red2"   markerWidth="9" markerHeight="7" refX="8" refY="3.5" orient="auto"><polygon points="0 0,9 3.5,0 7" fill="#dc2626"/></marker>
    <marker id="arr-blue2"  markerWidth="9" markerHeight="7" refX="8" refY="3.5" orient="auto"><polygon points="0 0,9 3.5,0 7" fill="#1a3a6b"/></marker>
    <marker id="arr-green2" markerWidth="9" markerHeight="7" refX="8" refY="3.5" orient="auto"><polygon points="0 0,9 3.5,0 7" fill="#059669"/></marker>
    <marker id="arr-gray2"  markerWidth="9" markerHeight="7" refX="8" refY="3.5" orient="auto"><polygon points="0 0,9 3.5,0 7" fill="#6b7280"/></marker>
  </defs>

  <!-- ═══════════════════════════════════════════════════ -->
  <!-- ACTOR 1: LAZARUS GROUP                             -->
  <!-- ═══════════════════════════════════════════════════ -->
  <rect x="62" y="388" width="64" height="64" rx="4" fill="#fff0f0" stroke="#dc2626" stroke-width="1.5"/>
  <circle cx="94" cy="406" r="10" fill="#dc2626"/>
  <text x="94" y="410" font-size="10" fill="#fff" text-anchor="middle" font-weight="700">⚠</text>
  <rect x="68" y="418" width="52" height="22" rx="3" fill="#dc2626"/>
  <text x="94" y="430" font-size="6.5" fill="#fff" text-anchor="middle" font-weight="700">LAZARUS</text>
  <text x="94" y="440" font-size="6" fill="#fff" text-anchor="middle">GROUP · DPRK</text>
  <text x="94" y="452" font-size="6" fill="#dc2626" text-anchor="middle" font-weight="700">State-sponsored</text>

  <!-- Characteristics box LEFT -->
  <rect x="14" y="88" width="162" height="188" rx="3" fill="#fff8f8" stroke="#dc2626" stroke-width="1"/>
  <rect x="14" y="88" width="162" height="18" rx="3" fill="#dc2626"/>
  <text x="95" y="100" font-size="8" fill="#fff" font-weight="700" text-anchor="middle">Characteristics</text>
  <text x="22" y="118" font-size="7.5" fill="#374151">• DPRK state hacking unit</text>
  <text x="22" y="131" font-size="7.5" fill="#374151">• US-sanctioned since 2019</text>
  <text x="22" y="144" font-size="7.5" fill="#374151">• Funds nuclear program</text>
  <text x="22" y="157" font-size="7.5" fill="#374151">• Ronin/Axie: $455M → TC</text>
  <text x="22" y="170" font-size="7.5" fill="#374151">• Harmony Bridge: $96M → TC</text>
  <text x="22" y="183" font-size="7.5" fill="#374151">• Nomad heist: $7.8M → TC</text>
  <text x="22" y="196" font-size="7.5" fill="#374151">• Total via TC: <tspan fill="#dc2626" font-weight="700">~$455M+</tspan></text>
  <text x="22" y="213" font-size="7.5" fill="#dc2626" font-weight="700">Red Flag: ACAMS 2.1</text>
  <text x="22" y="225" font-size="7.5" fill="#dc2626" font-weight="700">FATF R.7 — Proliferation</text>
  <text x="22" y="237" font-size="7.5" fill="#374151">Strict liability — SDN list</text>
  <text x="22" y="250" font-size="7.5" fill="#374151">Any VASP processing funds</text>
  <text x="22" y="262" font-size="7.5" fill="#374151">= sanctions violation</text>
  <line x1="94" y1="276" x2="94" y2="388" stroke="#dc2626" stroke-width="1" stroke-dasharray="4,3"/>

  <!-- ═══════════════════════════════════════════════════ -->
  <!-- ACTOR 2: TORNADO CASH                              -->
  <!-- ═══════════════════════════════════════════════════ -->
  <rect x="244" y="380" width="76" height="80" rx="4" fill="#f5f0ff" stroke="#7c3aed" stroke-width="2"/>
  <circle cx="282" cy="400" r="14" fill="#7c3aed"/>
  <text x="282" y="405" font-size="14" fill="#fff" text-anchor="middle">🌀</text>
  <text x="282" y="422" font-size="7" fill="#7c3aed" text-anchor="middle" font-weight="700">TORNADO</text>
  <text x="282" y="432" font-size="7" fill="#7c3aed" text-anchor="middle" font-weight="700">CASH</text>
  <text x="282" y="444" font-size="6.5" fill="#6b7280" text-anchor="middle">Smart Contract</text>
  <text x="282" y="454" font-size="6.5" fill="#6b7280" text-anchor="middle">Ethereum</text>

  <!-- Arrow Lazarus → TC -->
  <line x1="126" y1="420" x2="242" y2="420" stroke="#dc2626" stroke-width="2" marker-end="url(#arr-red2)"/>
  <rect x="136" y="404" width="96" height="14" rx="2" fill="#fff0f0" stroke="#dc2626" stroke-width="0.5"/>
  <text x="184" y="414" font-size="7" fill="#dc2626" text-anchor="middle" font-weight="700">illicit ETH → pools</text>

  <!-- TC characteristics box -->
  <rect x="194" y="88" width="172" height="210" rx="3" fill="#f5f0ff" stroke="#7c3aed" stroke-width="1"/>
  <rect x="194" y="88" width="172" height="18" rx="3" fill="#7c3aed"/>
  <text x="280" y="100" font-size="8" fill="#fff" font-weight="700" text-anchor="middle">How It Works</text>
  <text x="202" y="118" font-size="7.5" fill="#374151">1. Deposit into fixed pool</text>
  <text x="202" y="130" font-size="7.5" fill="#6b7280">   (0.1 / 1 / 10 / 100 ETH)</text>
  <text x="202" y="143" font-size="7.5" fill="#374151">2. Receive cryptographic note</text>
  <text x="202" y="155" font-size="7.5" fill="#6b7280">   (zk-SNARK — proves without</text>
  <text x="202" y="166" font-size="7.5" fill="#6b7280">   revealing identity)</text>
  <text x="202" y="179" font-size="7.5" fill="#374151">3. Withdraw to NEW wallet</text>
  <text x="202" y="191" font-size="7.5" fill="#6b7280">   (on-chain link: broken)</text>
  <text x="202" y="208" font-size="7.5" fill="#dc2626" font-weight="700">⚠ No custody</text>
  <text x="202" y="220" font-size="7.5" fill="#dc2626" font-weight="700">⚠ No operator — no KYC</text>
  <text x="202" y="232" font-size="7.5" fill="#dc2626" font-weight="700">⚠ No STR possible</text>
  <text x="202" y="244" font-size="7.5" fill="#dc2626" font-weight="700">⚠ Immutable — no off switch</text>
  <text x="202" y="261" font-size="7.5" fill="#374151">$7.6B processed (2019–2022)</text>
  <text x="202" y="273" font-size="7.5" fill="#374151">51,000+ deposits (100 ETH pool)</text>
  <text x="202" y="285" font-size="7.5" fill="#374151">FATF VA Guidance §5.3</text>
  <text x="202" y="297" font-size="7.5" fill="#374151">ACAMS 4.3.3 · ACAMS 3.1.4</text>
  <line x1="280" y1="298" x2="280" y2="380" stroke="#7c3aed" stroke-width="1" stroke-dasharray="4,3"/>

  <!-- Fixed pools below timeline -->
  <text x="282" y="520" font-size="7.5" fill="#7c3aed" font-weight="700" text-anchor="middle">Fixed Pools</text>
  <rect x="164" y="524" width="48" height="36" rx="3" fill="#f5f0ff" stroke="#7c3aed" stroke-width="1"/>
  <text x="188" y="537" font-size="8" fill="#7c3aed" font-weight="700" text-anchor="middle">0.1 ETH</text>
  <text x="188" y="549" font-size="6.5" fill="#6b7280" text-anchor="middle">~$260</text>
  <rect x="216" y="524" width="48" height="36" rx="3" fill="#f5f0ff" stroke="#7c3aed" stroke-width="1.5"/>
  <text x="240" y="537" font-size="8" fill="#7c3aed" font-weight="700" text-anchor="middle">1 ETH</text>
  <text x="240" y="549" font-size="6.5" fill="#6b7280" text-anchor="middle">~$2,600</text>
  <rect x="268" y="524" width="48" height="36" rx="3" fill="#f5f0ff" stroke="#7c3aed" stroke-width="2"/>
  <text x="292" y="537" font-size="8" fill="#7c3aed" font-weight="700" text-anchor="middle">10 ETH</text>
  <text x="292" y="549" font-size="6.5" fill="#6b7280" text-anchor="middle">~$26K</text>
  <rect x="320" y="524" width="56" height="36" rx="3" fill="#fff0f0" stroke="#dc2626" stroke-width="2"/>
  <text x="348" y="537" font-size="8" fill="#dc2626" font-weight="700" text-anchor="middle">100 ETH</text>
  <text x="348" y="549" font-size="6.5" fill="#dc2626" text-anchor="middle">~$260K ⚠</text>
  <line x1="282" y1="460" x2="282" y2="524" stroke="#7c3aed" stroke-width="1" stroke-dasharray="3,2"/>

  <!-- ═══════════════════════════════════════════════════ -->
  <!-- ACTOR 3: NEW WALLET                                 -->
  <!-- ═══════════════════════════════════════════════════ -->
  <rect x="444" y="388" width="66" height="64" rx="4" fill="#f0faf5" stroke="#059669" stroke-width="1.5"/>
  <circle cx="477" cy="404" r="11" fill="#059669"/>
  <text x="477" y="409" font-size="11" fill="#fff" text-anchor="middle">💳</text>
  <text x="477" y="422" font-size="6.5" fill="#059669" text-anchor="middle" font-weight="700">NEW WALLET</text>
  <text x="477" y="434" font-size="6" fill="#6b7280" text-anchor="middle">no prior history</text>
  <text x="477" y="444" font-size="6" fill="#6b7280" text-anchor="middle">ETH "clean"</text>
  <text x="477" y="454" font-size="6" fill="#dc2626" text-anchor="middle">untraced</text>

  <!-- Arrow TC → New wallet -->
  <line x1="320" y1="420" x2="442" y2="420" stroke="#dc2626" stroke-width="2" marker-end="url(#arr-red2)"/>
  <rect x="330" y="404" width="102" height="14" rx="2" fill="#fff0f0" stroke="#dc2626" stroke-width="0.5"/>
  <text x="381" y="414" font-size="7" fill="#dc2626" text-anchor="middle" font-weight="700">withdrawal — link broken</text>

  <!-- New wallet characteristics below -->
  <rect x="390" y="524" width="174" height="80" rx="3" fill="#f0faf5" stroke="#059669" stroke-width="1"/>
  <rect x="390" y="524" width="174" height="16" rx="3" fill="#059669"/>
  <text x="477" y="535" font-size="7.5" fill="#fff" font-weight="700" text-anchor="middle">Layering Indicators</text>
  <text x="398" y="552" font-size="7.5" fill="#374151">• New wallet, no history</text>
  <text x="398" y="564" font-size="7.5" fill="#374151">• Immediate fund movement</text>
  <text x="398" y="576" font-size="7.5" fill="#374151">• Relayer hides gas trail</text>
  <text x="398" y="588" font-size="7.5" fill="#dc2626" font-weight="700">ACAMS 3.1.2 · ACAMS 5.1.1</text>
  <text x="398" y="600" font-size="7.5" fill="#dc2626" font-weight="700">FATF VA Guidance §5.2</text>
  <line x1="477" y1="460" x2="477" y2="524" stroke="#059669" stroke-width="1" stroke-dasharray="3,2"/>

  <!-- ═══════════════════════════════════════════════════ -->
  <!-- ACTOR 4: OTC BROKER / EXCHANGE                     -->
  <!-- ═══════════════════════════════════════════════════ -->
  <rect x="598" y="388" width="70" height="64" rx="4" fill="#fffbeb" stroke="#d97706" stroke-width="1.5"/>
  <circle cx="633" cy="404" r="11" fill="#d97706"/>
  <text x="633" y="409" font-size="11" fill="#fff" text-anchor="middle">🏦</text>
  <text x="633" y="422" font-size="6.5" fill="#d97706" text-anchor="middle" font-weight="700">OTC BROKER</text>
  <text x="633" y="432" font-size="6.5" fill="#d97706" text-anchor="middle" font-weight="700">/ EXCHANGE</text>
  <text x="633" y="444" font-size="6" fill="#6b7280" text-anchor="middle">ETH → fiat</text>
  <text x="633" y="454" font-size="6" fill="#059669" text-anchor="middle" font-weight="700">⚡ CHOKEPOINT</text>

  <!-- Arrow new wallet → OTC -->
  <line x1="510" y1="420" x2="596" y2="420" stroke="#dc2626" stroke-width="2" marker-end="url(#arr-red2)"/>
  <rect x="516" y="404" width="72" height="14" rx="2" fill="#fff0f0" stroke="#dc2626" stroke-width="0.5"/>
  <text x="552" y="414" font-size="7" fill="#dc2626" text-anchor="middle" font-weight="700">integration attempt</text>

  <!-- OTC characteristics -->
  <rect x="556" y="88" width="172" height="180" rx="3" fill="#fffbeb" stroke="#d97706" stroke-width="1"/>
  <rect x="556" y="88" width="172" height="18" rx="3" fill="#d97706"/>
  <text x="642" y="100" font-size="8" fill="#fff" font-weight="700" text-anchor="middle">Integration Point</text>
  <text x="564" y="118" font-size="7.5" fill="#374151">• OTC converts ETH → fiat</text>
  <text x="564" y="131" font-size="7.5" fill="#374151">• No KYC / no record</text>
  <text x="564" y="144" font-size="7.5" fill="#374151">• Only traceable point</text>
  <text x="564" y="157" font-size="7.5" fill="#dc2626" font-weight="700">⚠ Travel Rule: unenforceable</text>
  <text x="564" y="170" font-size="7.5" fill="#dc2626" font-weight="700">⚠ STR: impossible at origin</text>
  <text x="564" y="187" font-size="7.5" fill="#374151">Regulated exchange: BLOCKING</text>
  <text x="564" y="199" font-size="7.5" fill="#374151">point — SAR mandatory</text>
  <text x="564" y="216" font-size="7.5" fill="#059669" font-weight="700">✓ Integration = criminal's</text>
  <text x="564" y="228" font-size="7.5" fill="#059669" font-weight="700">  maximum vulnerability</text>
  <text x="564" y="244" font-size="7.5" fill="#374151">ACAMS 2.3 · FATF R.20</text>
  <text x="564" y="256" font-size="7.5" fill="#374151">BSA — 30-day SAR window</text>
  <line x1="633" y1="268" x2="633" y2="388" stroke="#d97706" stroke-width="1" stroke-dasharray="4,3"/>

  <!-- ═══════════════════════════════════════════════════ -->
  <!-- FOUNDERS                                            -->
  <!-- ═══════════════════════════════════════════════════ -->
  <rect x="758" y="388" width="66" height="64" rx="4" fill="#fef9c3" stroke="#ca8a04" stroke-width="1.5"/>
  <circle cx="791" cy="404" r="11" fill="#ca8a04"/>
  <text x="791" y="409" font-size="11" fill="#fff" text-anchor="middle">👤</text>
  <text x="791" y="422" font-size="6.5" fill="#ca8a04" text-anchor="middle" font-weight="700">PERTSEV</text>
  <text x="791" y="432" font-size="6" fill="#6b7280" text-anchor="middle">Netherlands</text>
  <text x="791" y="442" font-size="6" fill="#6b7280" text-anchor="middle">Co-founder</text>
  <text x="791" y="452" font-size="6" fill="#dc2626" text-anchor="middle" font-weight="700">64 months 🔒</text>

  <rect x="836" y="388" width="66" height="64" rx="4" fill="#fff0f0" stroke="#dc2626" stroke-width="1.5"/>
  <circle cx="869" cy="404" r="11" fill="#dc2626"/>
  <text x="869" y="409" font-size="11" fill="#fff" text-anchor="middle">👤</text>
  <text x="869" y="422" font-size="6.5" fill="#dc2626" text-anchor="middle" font-weight="700">STORM</text>
  <text x="869" y="432" font-size="6" fill="#6b7280" text-anchor="middle">USA — SDNY</text>
  <text x="869" y="442" font-size="6" fill="#6b7280" text-anchor="middle">Co-founder</text>
  <text x="869" y="452" font-size="6" fill="#d97706" text-anchor="middle" font-weight="700">1/3 guilty ⚖</text>

  <rect x="914" y="388" width="66" height="64" rx="4" fill="#f8f8f8" stroke="#6b7280" stroke-width="1" stroke-dasharray="4,2"/>
  <circle cx="947" cy="404" r="11" fill="#6b7280"/>
  <text x="947" y="409" font-size="11" fill="#fff" text-anchor="middle">👤</text>
  <text x="947" y="422" font-size="6.5" fill="#6b7280" text-anchor="middle" font-weight="700">SEMENOV</text>
  <text x="947" y="432" font-size="6" fill="#6b7280" text-anchor="middle">Co-founder</text>
  <text x="947" y="442" font-size="6" fill="#6b7280" text-anchor="middle">Fugitive</text>
  <text x="947" y="452" font-size="6" fill="#6b7280" text-anchor="middle" font-weight="700">Russia (est.)</text>

  <!-- Arrow OTC → Founders -->
  <line x1="668" y1="420" x2="756" y2="420" stroke="#1a3a6b" stroke-width="1.5" stroke-dasharray="5,3" marker-end="url(#arr-blue2)"/>
  <text x="712" y="413" font-size="7" fill="#1a3a6b" text-anchor="middle">investigation</text>

  <!-- Founders box -->
  <rect x="728" y="88" width="284" height="222" rx="3" fill="#fefce8" stroke="#ca8a04" stroke-width="1"/>
  <rect x="728" y="88" width="284" height="18" rx="3" fill="#ca8a04"/>
  <text x="870" y="100" font-size="8" fill="#fff" font-weight="700" text-anchor="middle">Founders — Criminal Liability</text>

  <text x="746" y="120" font-size="7.5" fill="#ca8a04" font-weight="700">PERTSEV (NL)</text>
  <text x="746" y="132" font-size="7" fill="#374151">Arrested: Aug 2022</text>
  <text x="746" y="144" font-size="7" fill="#374151">Convicted: May 2024</text>
  <text x="746" y="156" font-size="7" fill="#dc2626" font-weight="700">64 months prison</text>
  <text x="746" y="168" font-size="7" fill="#374151">Porsche + €1.9M seized</text>
  <text x="746" y="180" font-size="7" fill="#374151">Court: TC lacked</text>
  <text x="746" y="192" font-size="7" fill="#374151">anti-abuse measures</text>

  <line x1="828" y1="108" x2="828" y2="298" stroke="#e5e7eb" stroke-width="0.8"/>
  <text x="840" y="120" font-size="7.5" fill="#dc2626" font-weight="700">STORM (USA)</text>
  <text x="840" y="132" font-size="7" fill="#374151">Arrested: Aug 2023</text>
  <text x="840" y="144" font-size="7" fill="#374151">Trial: Jul–Aug 2025</text>
  <text x="840" y="156" font-size="7" fill="#059669" font-weight="700">✓ Guilty: unlicensed MTB</text>
  <text x="840" y="168" font-size="7" fill="#d97706" font-weight="700">✗ Deadlocked: laundering</text>
  <text x="840" y="180" font-size="7" fill="#d97706" font-weight="700">✗ Deadlocked: sanctions</text>
  <text x="840" y="192" font-size="7" fill="#374151">"Laundromat" t-shirt</text>
  <text x="840" y="204" font-size="7" fill="#374151">used as intent evidence</text>

  <line x1="924" y1="108" x2="924" y2="298" stroke="#e5e7eb" stroke-width="0.8"/>
  <text x="936" y="120" font-size="7.5" fill="#6b7280" font-weight="700">SEMENOV</text>
  <text x="936" y="132" font-size="7" fill="#374151">Indicted: Aug 2023</text>
  <text x="936" y="144" font-size="7" fill="#374151">Status: fugitive</text>
  <text x="936" y="156" font-size="7" fill="#374151">Location: Russia (est.)</text>
  <text x="936" y="168" font-size="7" fill="#dc2626" font-weight="700">Still on OFAC SDN</text>
  <text x="936" y="180" font-size="7" fill="#374151">individually listed</text>

  <line x1="791" y1="310" x2="791" y2="388" stroke="#ca8a04" stroke-width="1" stroke-dasharray="4,3"/>
  <line x1="869" y1="310" x2="869" y2="388" stroke="#dc2626" stroke-width="1" stroke-dasharray="4,3"/>
  <line x1="947" y1="310" x2="947" y2="388" stroke="#6b7280" stroke-width="1" stroke-dasharray="4,3"/>

  <!-- ═══════════════════════════════════════════════════ -->
  <!-- OFAC / COURTS                                       -->
  <!-- ═══════════════════════════════════════════════════ -->
  <rect x="1058" y="388" width="72" height="64" rx="4" fill="#eff6ff" stroke="#1a3a6b" stroke-width="2"/>
  <circle cx="1094" cy="404" r="11" fill="#1a3a6b"/>
  <text x="1094" y="409" font-size="11" fill="#fff" text-anchor="middle">⚖</text>
  <text x="1094" y="422" font-size="6.5" fill="#1a3a6b" text-anchor="middle" font-weight="700">OFAC / DOJ</text>
  <text x="1094" y="432" font-size="6.5" fill="#1a3a6b" text-anchor="middle" font-weight="700">COURTS</text>
  <text x="1094" y="444" font-size="6" fill="#6b7280" text-anchor="middle">USA + Netherlands</text>
  <text x="1094" y="454" font-size="6" fill="#059669" text-anchor="middle" font-weight="700">5th Circuit ✓</text>

  <!-- Arrow founders → enforcement -->
  <line x1="980" y1="420" x2="1056" y2="420" stroke="#1a3a6b" stroke-width="2" marker-end="url(#arr-blue2)"/>
  <text x="1018" y="413" font-size="7" fill="#1a3a6b" text-anchor="middle" font-weight="700">prosecution</text>

  <!-- Legal timeline box -->
  <rect x="1018" y="88" width="204" height="248" rx="3" fill="#eff6ff" stroke="#1a3a6b" stroke-width="1"/>
  <rect x="1018" y="88" width="204" height="18" rx="3" fill="#1a3a6b"/>
  <text x="1120" y="100" font-size="8" fill="#fff" font-weight="700" text-anchor="middle">Regulatory Timeline</text>
  <text x="1026" y="118" font-size="7" fill="#dc2626" font-weight="700">Aug 2022:</text>
  <text x="1026" y="129" font-size="7" fill="#374151">OFAC sanctions TC — 1st time</text>
  <text x="1026" y="139" font-size="7" fill="#374151">in history code is sanctioned</text>
  <text x="1026" y="153" font-size="7" fill="#d97706" font-weight="700">Aug 2022:</text>
  <text x="1026" y="164" font-size="7" fill="#374151">Pertsev arrested, Netherlands</text>
  <text x="1026" y="178" font-size="7" fill="#d97706" font-weight="700">Aug 2023:</text>
  <text x="1026" y="189" font-size="7" fill="#374151">Storm arrested, Semenov indicted</text>
  <text x="1026" y="203" font-size="7" fill="#ca8a04" font-weight="700">May 2024:</text>
  <text x="1026" y="214" font-size="7" fill="#374151">Pertsev convicted NL (64m)</text>
  <text x="1026" y="228" font-size="7" fill="#7c3aed" font-weight="700">Nov 2024:</text>
  <text x="1026" y="239" font-size="7" fill="#374151">5th Circuit: immutable code</text>
  <text x="1026" y="249" font-size="7" fill="#374151">≠ "property" — OFAC overreached</text>
  <text x="1026" y="263" font-size="7" fill="#059669" font-weight="700">Mar 2025:</text>
  <text x="1026" y="274" font-size="7" fill="#374151">OFAC removes TC from SDN</text>
  <text x="1026" y="288" font-size="7" fill="#dc2626" font-weight="700">Aug 2025:</text>
  <text x="1026" y="299" font-size="7" fill="#374151">Storm verdict: 1/3 guilty</text>
  <text x="1026" y="309" font-size="7" fill="#374151">jury deadlocked on laundering</text>
  <text x="1026" y="323" font-size="7" fill="#374151">Developer liability:</text>
  <text x="1026" y="333" font-size="7" fill="#dc2626" font-weight="700">STILL UNRESOLVED</text>
  <line x1="1094" y1="336" x2="1094" y2="388" stroke="#1a3a6b" stroke-width="1" stroke-dasharray="4,3"/>

  <!-- RESULT -->
  <rect x="1178" y="388" width="80" height="64" rx="4" fill="#f0fdf4" stroke="#059669" stroke-width="2"/>
  <circle cx="1218" cy="404" r="11" fill="#059669"/>
  <text x="1218" y="409" font-size="11" fill="#fff" text-anchor="middle">✓</text>
  <text x="1218" y="422" font-size="6.5" fill="#059669" text-anchor="middle" font-weight="700">PARTIAL</text>
  <text x="1218" y="432" font-size="6.5" fill="#059669" text-anchor="middle" font-weight="700">OUTCOME</text>
  <text x="1218" y="442" font-size="6" fill="#374151" text-anchor="middle">Pertsev: 64m</text>
  <text x="1218" y="452" font-size="6" fill="#374151" text-anchor="middle">Storm: 1 count</text>

  <line x1="1130" y1="420" x2="1176" y2="420" stroke="#059669" stroke-width="2" marker-end="url(#arr-green2)"/>

  <!-- ═══════════════════════════════════════════════════ -->
  <!-- BOTTOM: RED FLAGS + KEY QUESTION                    -->
  <!-- ═══════════════════════════════════════════════════ -->
  <rect x="14" y="578" width="660" height="138" rx="3" fill="#fff8f8" stroke="#dc2626" stroke-width="1"/>
  <rect x="14" y="578" width="660" height="18" rx="3" fill="#dc2626"/>
  <text x="344" y="590" font-size="8" fill="#fff" font-weight="700" text-anchor="middle">Financial Intelligence Alert Indicators — AML Red Flags</text>
  <g font-size="7.5" fill="#374151">
    <text x="22" y="610">• Complete absence of VASP, KYC, and STR — AML framework has no entry point</text>
    <text x="22" y="623">• Fixed denomination deposits — structuring via pool selection (ACAMS 3.1.4)</text>
    <text x="22" y="636">• On-chain link deposit/withdrawal broken — tracing computationally infeasible</text>
    <text x="22" y="649">• Relayer use: withdrawal from wallet with zero ETH balance (ACAMS 5.1.1)</text>
    <text x="22" y="662">• State-sponsored sanctioned actor — DPRK Lazarus Group (SDN since 2019)</text>
    <text x="22" y="675">• Immutable code: impossible to block, freeze, or disable</text>
    <text x="22" y="688">• Criminal proceeds: DeFi / cross-chain bridge hacks (predicate offence confirmed)</text>
    <text x="22" y="701" fill="#dc2626" font-weight="700">Frameworks: ACAMS 4.3.3 · FATF R.16 · FATF VA Guidance §5.2/5.3 · IEEPA · BSA · EU 6AMLD Art.2</text>
    <text x="22" y="713" fill="#374151">Integration phase remains the only effective enforcement point — this is where investigative focus applies</text>
  </g>

  <!-- Key question box -->
  <rect x="686" y="578" width="694" height="138" rx="3" fill="#eff6ff" stroke="#1a3a6b" stroke-width="1"/>
  <rect x="686" y="578" width="694" height="18" rx="3" fill="#1a3a6b"/>
  <text x="1033" y="590" font-size="8" fill="#fff" font-weight="700" text-anchor="middle">Central Legal Question — No Definitive Answer</text>
  <text x="694" y="610" font-size="8" fill="#1a3a6b" font-weight="700">"Can a developer be criminally liable for how third parties use code they no longer control?"</text>
  <g font-size="7.5">
    <text x="694" y="628" fill="#374151">• Netherlands (Pertsev): <tspan fill="#dc2626" font-weight="700">YES</tspan> — convicted 64 months. TC lacked anti-abuse measures.</text>
    <text x="694" y="641" fill="#374151">• USA — jury (Storm): <tspan fill="#d97706" font-weight="700">UNDECIDED</tspan> — guilty of unlicensed MTB, deadlocked on laundering and sanctions.</text>
    <text x="694" y="654" fill="#374151">• USA — 5th Circuit: <tspan fill="#7c3aed" font-weight="700">NO (sanctions)</tspan> — immutable code ≠ "property" under IEEPA. OFAC exceeded authority.</text>
    <text x="694" y="667" fill="#374151">• DOJ (Apr 2025): acknowledged "regulation by prosecution" — criminal process is not a regulatory tool.</text>
    <text x="694" y="680" fill="#374151">• TC continues to run today. Immutable. Semenov at large. Question remains open.</text>
    <text x="694" y="696" fill="#059669" font-weight="700">AML takeaway: Integration phase is the only real enforcement point. Decentralized mixers break everything else.</text>
    <text x="694" y="709" fill="#374151" font-size="7">Frameworks: ACAMS CAMS 10th Ed. · FATF R.15 §5 · 18 U.S.C. §1960 · IEEPA · BSA/FinCEN · EU 6AMLD</text>
  </g>

  <!-- ═══════════════════════════════════════════════════ -->
  <!-- CHRONOLOGY STRIP                                    -->
  <!-- ═══════════════════════════════════════════════════ -->
  <rect x="0" y="728" width="1400" height="72" fill="#f8fafc"/>
  <rect x="0" y="728" width="1400" height="1" fill="#e2e8f0"/>
  <text x="20" y="746" font-size="7.5" fill="#1a3a6b" font-weight="700">Chronology:</text>
  <line x1="100" y1="758" x2="1380" y2="758" stroke="#1a3a6b" stroke-width="1.5"/>

  <g font-size="7" text-anchor="middle">
    <circle cx="130" cy="758" r="4" fill="#6b7280" stroke="#374151" stroke-width="1"/>
    <line x1="130" y1="754" x2="130" y2="742" stroke="#374151" stroke-width="1"/>
    <text x="130" y="739" fill="#6b7280">2019</text>
    <text x="130" y="770" fill="#6b7280">TC launched</text>

    <circle cx="300" cy="758" r="5" fill="#dc2626"/>
    <line x1="300" y1="753" x2="300" y2="738" stroke="#dc2626" stroke-width="1.5"/>
    <text x="300" y="735" fill="#dc2626" font-weight="700">Mar 2022</text>
    <text x="300" y="770" fill="#374151">Ronin $625M</text>
    <text x="300" y="779" fill="#374151">→ TC: $455M</text>

    <circle cx="450" cy="758" r="5" fill="#dc2626"/>
    <line x1="450" y1="753" x2="450" y2="738" stroke="#dc2626" stroke-width="1.5"/>
    <text x="450" y="735" fill="#dc2626" font-weight="700">Aug 2022</text>
    <text x="450" y="770" fill="#374151">OFAC sanctions</text>
    <text x="450" y="779" fill="#374151">Pertsev arrested NL</text>

    <circle cx="620" cy="758" r="5" fill="#d97706"/>
    <line x1="620" y1="753" x2="620" y2="738" stroke="#d97706" stroke-width="1.5"/>
    <text x="620" y="735" fill="#d97706" font-weight="700">Aug 2023</text>
    <text x="620" y="770" fill="#374151">Storm arrested</text>
    <text x="620" y="779" fill="#374151">Semenov indicted</text>

    <circle cx="790" cy="758" r="5" fill="#ca8a04"/>
    <line x1="790" y1="753" x2="790" y2="738" stroke="#ca8a04" stroke-width="1.5"/>
    <text x="790" y="735" fill="#ca8a04" font-weight="700">May 2024</text>
    <text x="790" y="770" fill="#374151">Pertsev convicted</text>
    <text x="790" y="779" fill="#374151">64 months NL</text>

    <circle cx="960" cy="758" r="5" fill="#7c3aed"/>
    <line x1="960" y1="753" x2="960" y2="738" stroke="#7c3aed" stroke-width="1.5"/>
    <text x="960" y="735" fill="#7c3aed" font-weight="700">Nov 2024</text>
    <text x="960" y="770" fill="#374151">5th Circuit: OFAC</text>
    <text x="960" y="779" fill="#374151">overreached</text>

    <circle cx="1110" cy="758" r="5" fill="#059669"/>
    <line x1="1110" y1="753" x2="1110" y2="738" stroke="#059669" stroke-width="1.5"/>
    <text x="1110" y="735" fill="#059669" font-weight="700">Mar 2025</text>
    <text x="1110" y="770" fill="#374151">OFAC delists TC</text>
    <text x="1110" y="779" fill="#374151">from SDN list</text>

    <circle cx="1280" cy="758" r="6" fill="#dc2626" stroke="#1a3a6b" stroke-width="1.5"/>
    <line x1="1280" y1="752" x2="1280" y2="734" stroke="#dc2626" stroke-width="2"/>
    <text x="1280" y="731" fill="#dc2626" font-weight="700">Aug 2025</text>
    <text x="1280" y="770" fill="#374151">Storm verdict</text>
    <text x="1280" y="779" fill="#374151">1/3 guilty · SDNY</text>
  </g>

  <!-- Footer -->
  <rect x="0" y="800" width="1400" height="20" fill="#1a3a6b"/>
  <text x="16" y="813" font-size="7" fill="#93c5fd">Author: Phelipe Agnelli — AML &amp; Blockchain Forensics  ·  Sources: OFAC Treasury.gov · DOJ SDNY · 5th Circuit Van Loon v. Treasury · Dutch FIOD · Chainalysis · ACAMS · FATF</text>
  <text x="1384" y="813" font-size="7" fill="#93c5fd" text-anchor="end">github.com/PhelipeAgnelli/aml-blockchain-research  ·  AML-IR-2026-004</text>

</svg>
